<svg width="104" height="67" viewBox="0 0 104 67" fill="none" xmlns="http://www.w3.org/2000/svg">
<path d="M3.29652 51.4222C3.81193 46.1954 6.92705 40.9779 11.8836 39.1529C10.052 44.5665 10.2068 50.4492 12.3206 55.7603C13.1433 57.8057 14.2726 59.9955 13.6044 62.0956C13.1886 63.4024 12.1144 64.4218 10.9008 65.0732C9.68715 65.7247 8.32995 66.0553 6.98967 66.3797L6.73012 66.6045C4.46442 61.8595 2.78112 56.6491 3.29652 51.4222Z" fill="#F0F0F0"/>
<path d="M11.9353 39.2501C9.13674 42.5319 7.37536 46.7233 7.06739 51.0201C7.00081 51.9491 7.01464 52.8972 7.24248 53.8053C7.47141 54.6887 7.93426 55.4951 8.58295 56.1407C9.17562 56.7547 9.85342 57.3146 10.2855 58.061C10.741 58.8478 10.7815 59.7542 10.5063 60.6096C10.1695 61.6562 9.47433 62.5202 8.76494 63.3416C7.9773 64.2537 7.14465 65.1886 6.8309 66.3788C6.79289 66.523 6.56989 66.456 6.60785 66.312C7.15371 64.2412 9.13113 63.0218 10.0402 61.1459C10.4644 60.2706 10.6256 59.2629 10.1828 58.362C9.79552 57.5741 9.09706 56.9962 8.49157 56.3796C7.85578 55.7322 7.36255 55.0167 7.09524 54.1446C6.82181 53.2526 6.77064 52.303 6.81302 51.3765C6.92491 49.276 7.3685 47.2061 8.12755 45.2426C8.98133 42.9969 10.2155 40.9128 11.7766 39.0806C11.8733 38.9672 12.0313 39.1375 11.9353 39.2501L11.9353 39.2501Z" fill="white"/>
<path d="M7.0936 49.6183C6.36939 49.4633 5.7242 49.0576 5.27325 48.4737C4.82229 47.8897 4.59494 47.1655 4.6318 46.4304C4.63358 46.4005 4.64699 46.3724 4.66922 46.352C4.69145 46.3317 4.72076 46.3207 4.75096 46.3214C4.78117 46.3222 4.80992 46.3345 4.83114 46.3559C4.85237 46.3772 4.86443 46.4059 4.86477 46.436C4.82917 47.1204 5.04101 47.795 5.46206 48.3379C5.88311 48.8808 6.48562 49.2563 7.16086 49.3966C7.30756 49.4273 7.23946 49.6487 7.0936 49.6183V49.6183Z" fill="white"/>
<path d="M8.24164 55.8686C9.52119 55.0639 10.4484 53.8096 10.8385 52.3557C10.877 52.2117 11.1 52.2787 11.0616 52.4225C10.6528 53.9347 9.68519 55.2381 8.35181 56.0726C8.22466 56.1521 8.11518 55.9477 8.24164 55.8686Z" fill="white"/>
<path d="M9.20392 43.2105C9.47156 43.3284 9.7645 43.3785 10.0564 43.3562C10.3484 43.3339 10.6301 43.2399 10.8765 43.0826C11.0025 43.0016 11.1119 43.2061 10.9866 43.2866C10.7137 43.459 10.4023 43.5625 10.0799 43.5878C9.75738 43.6132 9.43354 43.5597 9.13666 43.4321C9.10766 43.4224 9.08347 43.4021 9.069 43.3753C9.05453 43.3485 9.05087 43.3172 9.05876 43.2878C9.06781 43.2585 9.08814 43.234 9.11532 43.2195C9.1425 43.205 9.17434 43.2018 9.20392 43.2105H9.20392Z" fill="white"/>
<path d="M27.3715 48.0636C27.2942 48.1165 27.217 48.1693 27.1396 48.224C26.1045 48.9394 25.1295 49.7372 24.2244 50.6094C24.1533 50.6758 24.0823 50.7441 24.0133 50.8123C21.8552 52.9368 20.1129 55.441 18.8748 58.1975C18.3832 59.2948 17.9763 60.4277 17.6577 61.5864C17.2178 63.1865 16.8689 64.9563 15.9496 66.2797C15.8553 66.4188 15.7524 66.552 15.6414 66.6785L7.02626 66.9017C7.00643 66.8924 6.98655 66.8851 6.96662 66.8759L6.62305 66.9004C6.63528 66.8395 6.64928 66.7766 6.66152 66.7157C6.66846 66.6803 6.67733 66.6449 6.68428 66.6096C6.68952 66.586 6.69486 66.5624 6.69822 66.5408C6.69994 66.533 6.70175 66.5251 6.70351 66.5192C6.70688 66.4976 6.71232 66.4779 6.71574 66.4583C6.79305 66.1065 6.87297 65.7546 6.95552 65.4027C6.95547 65.4007 6.95547 65.4007 6.95733 65.3987C7.59319 62.7186 8.45984 60.0678 9.7039 57.6319C9.74135 57.5586 9.77866 57.4834 9.82005 57.41C10.3869 56.3151 11.043 55.268 11.7816 54.2793C12.1877 53.7392 12.6212 53.2199 13.0802 52.7234C14.2688 51.4426 15.6527 50.3556 17.1812 49.5021C20.2287 47.8012 23.7897 47.0875 27.1179 47.9921C27.203 48.0152 27.2863 48.0385 27.3715 48.0636Z" fill="#F0F0F0"/>
<path d="M27.3548 48.1728C23.1316 49.1191 19.1853 51.412 16.3356 54.6586C15.7195 55.3605 15.156 56.1258 14.7877 56.9871C14.4351 57.8294 14.316 58.7501 14.4428 59.6536C14.5439 60.4984 14.7458 61.3509 14.6385 62.2054C14.5254 63.1061 14.0085 63.854 13.2703 64.3723C12.3672 65.0065 11.2886 65.2805 10.2244 65.5121C9.04284 65.7691 7.81146 66.0176 6.8397 66.7802C6.72196 66.8726 6.58453 66.6857 6.70209 66.5934C8.39278 65.2666 10.7106 65.4758 12.5732 64.5217C13.4423 64.0766 14.1817 63.3685 14.3741 62.3842C14.5423 61.5235 14.3348 60.6443 14.225 59.7898C14.1097 58.8926 14.1495 58.0261 14.4645 57.17C14.7867 56.2942 15.3213 55.5054 15.9166 54.7909C17.2788 53.1808 18.8873 51.7935 20.6832 50.6797C22.7258 49.3974 24.9741 48.4716 27.3309 47.9425C27.4767 47.9098 27.4997 48.1403 27.3548 48.1728H27.3548Z" fill="white"/>
<path d="M17.2053 53.5548C16.7209 52.9978 16.4516 52.288 16.4454 51.552C16.4392 50.816 16.6966 50.1017 17.1714 49.5368C17.2679 49.4229 17.4507 49.5665 17.3541 49.6806C16.9109 50.2058 16.6713 50.8712 16.6785 51.5565C16.6856 52.2419 16.9392 52.9021 17.3933 53.418C17.4918 53.5303 17.3033 53.6663 17.2053 53.5548V53.5548Z" fill="white"/>
<path d="M14.3345 59.232C15.8438 59.3548 17.3443 58.908 18.5367 57.9805C18.6548 57.8885 18.7922 58.0754 18.6743 58.1673C17.4316 59.1301 15.8692 59.592 14.2989 59.4607C14.1492 59.4481 14.1856 59.2194 14.3345 59.232H14.3345Z" fill="white"/>
<path d="M22.7735 49.7006C22.9157 49.9549 23.1192 50.1701 23.3658 50.3269C23.6125 50.4837 23.8944 50.5772 24.1864 50.599C24.3361 50.6097 24.2995 50.8384 24.1508 50.8277C23.8283 50.8022 23.517 50.6985 23.2442 50.5259C22.9713 50.3532 22.7452 50.1168 22.5855 49.8373C22.5682 49.8122 22.5612 49.7815 22.5659 49.7515C22.5705 49.7214 22.5866 49.6943 22.6107 49.6756C22.6356 49.6576 22.6668 49.6501 22.6972 49.6548C22.7277 49.6595 22.7551 49.6759 22.7735 49.7006V49.7006Z" fill="white"/>
<path d="M77.9345 4.58598C77.8058 4.20862 76.1928 2.92587 77.1812 2.71026L77.9918 3.7841L81.7185 0.081543L82.0933 0.453935L77.9345 4.58598Z" fill="#E61D2B"/>
<path d="M77.9345 17.1762C77.8058 16.7988 76.1928 15.5161 77.1812 15.3005L77.9918 16.3743L81.7185 12.6718L82.0933 13.0441L77.9345 17.1762Z" fill="#E61D2B"/>
<path d="M77.9345 29.9463C77.8058 29.569 76.1928 28.2862 77.1812 28.0706L77.9918 29.1445L81.7185 25.4419L82.0933 25.8143L77.9345 29.9463Z" fill="#E61D2B"/>
<path d="M74.5025 19.622C75.1376 19.622 75.6525 19.1105 75.6525 18.4795C75.6525 17.8485 75.1376 17.3369 74.5025 17.3369C73.8674 17.3369 73.3525 17.8485 73.3525 18.4795C73.3525 19.1105 73.8674 19.622 74.5025 19.622Z" fill="#3F3D56"/>
<path d="M74.5025 7.16816C75.1376 7.16816 75.6525 6.65663 75.6525 6.02561C75.6525 5.3946 75.1376 4.88306 74.5025 4.88306C73.8674 4.88306 73.3525 5.3946 73.3525 6.02561C73.3525 6.65663 73.8674 7.16816 74.5025 7.16816Z" fill="#3F3D56"/>
<path d="M104 3.39777H85.4854V3.62628H104V3.39777Z" fill="#3F3D56"/>
<path d="M75.0777 32.8978C75.7128 32.8978 76.2277 32.3862 76.2277 31.7552C76.2277 31.1242 75.7128 30.6127 75.0777 30.6127C74.4426 30.6127 73.9277 31.1242 73.9277 31.7552C73.9277 32.3862 74.4426 32.8978 75.0777 32.8978Z" fill="#3F3D56"/>
<path d="M104 15.988H85.4854V16.2165H104V15.988Z" fill="#3F3D56"/>
<path d="M104 28.7581H85.4854V28.9866H104V28.7581Z" fill="#3F3D56"/>
<path d="M80.8388 31.6487H75.0889V25.8217H78.9988V26.0502H75.3189V31.4202H80.6088V28.7924H80.8388V31.6487Z" fill="#3F3D56"/>
<path d="M80.8388 18.8521H75.0889V13.0251H78.9988V13.2536H75.3189V18.6236H80.6088V15.9957H80.8388V18.8521Z" fill="#3F3D56"/>
<path d="M80.8388 5.82702H75.0889V0H78.9988V0.228511H75.3189V5.59851H80.6088V2.97064H80.8388V5.82702Z" fill="#3F3D56"/>
<path d="M43.2971 20.7684C43.2971 20.7684 41.7604 27.2148 43.6386 27.2148C45.5168 27.2148 49.9562 19.9201 49.9562 19.9201L48.4195 18.0541L45.6612 21.8588L45.5168 19.9201L43.2971 20.7684Z" fill="#A0616A"/>
<path d="M49.5477 20.2004C50.3734 20.2004 51.0427 19.5354 51.0427 18.7151C51.0427 17.8947 50.3734 17.2297 49.5477 17.2297C48.7221 17.2297 48.0527 17.8947 48.0527 18.7151C48.0527 19.5354 48.7221 20.2004 49.5477 20.2004Z" fill="#A0616A"/>
<path d="M41.9946 64.6741L43.9844 64.6739L44.9312 57.0479L41.9941 57.048L41.9946 64.6741Z" fill="#A0616A"/>
<path d="M41.9239 66.7365L48.0433 66.7363V66.6594C48.0433 66.0318 47.7923 65.4299 47.3456 64.9861C46.899 64.5423 46.2932 64.293 45.6615 64.293H45.6613L44.5435 63.4504L42.458 64.2931L41.9238 64.2931L41.9239 66.7365Z" fill="#2F2E41"/>
<path d="M20.5889 62.2073L22.3694 63.0901L26.6441 56.6866L24.0162 55.3837L20.5889 62.2073Z" fill="#A0616A"/>
<path d="M19.5996 64.0217L25.075 66.7366L25.1096 66.6678C25.3917 66.1062 25.4376 65.4563 25.2374 64.8611C25.0373 64.2658 24.6073 63.7739 24.0421 63.4936L24.042 63.4936L23.4205 62.2438L21.1757 62.0724L20.6977 61.8354L19.5996 64.0217Z" fill="#2F2E41"/>
<path d="M65.5317 66.744H0V67H65.5317V66.744Z" fill="#CCCCCC"/>
<path d="M29.1295 32.4631C29.1295 32.4631 28.3342 41.9633 28.1635 43.999C28.0464 45.2751 27.7593 46.5301 27.3098 47.7312C27.3098 47.7312 26.9683 48.4097 26.9683 49.0883L23.098 56.0766C23.098 56.0766 21.9154 56.9403 22.0861 57.6189C22.2568 58.2974 21.373 58.7045 21.373 58.7045L25.4488 59.4849C25.4488 59.4849 25.278 58.976 25.7903 58.8064C26.3025 58.6367 26.7102 57.1653 26.7102 57.1653L32.4321 47.9008L36.53 39.4187C36.53 39.4187 38.9205 47.0526 39.4327 47.9008C39.4327 47.9008 41.3109 57.4008 41.6524 58.249C41.9939 59.0972 42.1646 59.0972 41.9939 59.4365C41.8231 59.7758 41.8231 60.1151 41.9939 60.2847C42.1646 60.4544 45.4088 60.2847 45.4088 60.2847L44.5551 48.2401L43.0184 33.8204L35.1641 31.4454L29.1295 32.4631Z" fill="#2F2E41"/>
<path d="M36.8191 9.78387C38.7994 9.78387 40.4047 8.18889 40.4047 6.22137C40.4047 4.25386 38.7994 2.65887 36.8191 2.65887C34.8388 2.65887 33.2334 4.25386 33.2334 6.22137C33.2334 8.18889 34.8388 9.78387 36.8191 9.78387Z" fill="#A0616A"/>
<path d="M43.3588 14.9901L39.0903 12.4207C39.0903 12.4207 38.972 10.8251 37.7558 10.75C37.1452 10.7123 36.2289 10.6547 34.8538 10.5666C34.5632 10.548 34.3671 12.1276 34.0341 12.1062L29.5284 13.2937L30.2114 24.8294C30.2114 24.8294 29.1869 29.4097 29.5284 30.258C29.8699 31.1062 28.6747 31.4455 29.0161 31.6151C29.3576 31.7847 29.0161 32.9722 29.0161 32.9722C29.0161 32.9722 35.6752 36.3651 43.0173 33.8204L42.3343 31.6151C42.4273 31.3268 42.4447 31.0197 42.3849 30.7229C42.3252 30.4261 42.1902 30.1493 41.9928 29.9187C41.9928 29.9187 42.6758 28.9008 41.8221 28.0526C41.8221 28.0526 42.1636 26.5258 41.3098 25.8472L41.1391 23.4722L41.6513 22.2847L43.3588 14.9901Z" fill="#E6E6E6"/>
<path d="M33.7079 8.25658L33.6077 8.02528C33.5948 7.99538 32.3267 5.01704 33.4507 3.17992C33.971 2.32942 34.9171 1.84924 36.2626 1.75284C38.3679 1.6016 39.8088 2.09778 40.5464 3.22656C40.6701 3.41786 40.7396 3.63874 40.7476 3.86597C40.7557 4.0932 40.702 4.31838 40.5921 4.51785C40.4823 4.71731 40.3203 4.88369 40.1234 4.99948C39.9264 5.11527 39.7017 5.1762 39.4729 5.17587H39.4446L39.0578 4.67684L39.0352 4.72537C38.8952 5.02641 38.5736 5.19121 38.1969 5.15511C38.1328 5.15054 38.076 5.20549 38.0304 5.3231C38.0151 5.37454 37.9861 5.42093 37.9465 5.4574C37.9069 5.49387 37.8581 5.51907 37.8053 5.53035C37.527 5.58419 37.1302 5.23585 36.9526 5.06223C36.9457 5.10219 36.9303 5.14022 36.9074 5.17375C36.8845 5.20729 36.8546 5.23554 36.8197 5.2566C36.6326 5.36388 36.3413 5.22374 36.2577 5.17911C35.5917 5.3197 35.1606 5.28209 34.9759 5.06748C34.8507 5.94765 34.5819 7.53194 34.2597 7.61975C34.226 7.62745 34.1907 7.62418 34.1591 7.61043C34.1274 7.59667 34.101 7.57317 34.0838 7.54338C34.0062 7.44329 33.9369 7.39342 33.8936 7.40742C33.7887 7.44056 33.7269 7.78355 33.718 8.00492L33.7079 8.25658Z" fill="#2F2E41"/>
<path d="M41.4811 15.1598L43.1843 14.8848C44.4113 16.0561 45.2471 17.5731 45.579 19.2312C46.0912 21.9455 46.2619 22.4544 46.2619 22.4544L42.164 23.4723L39.9443 19.2312L41.4811 15.1598Z" fill="#E6E6E6"/>
<path d="M33.9237 18.6902L32.8711 31.9478L59.7329 34.053L60.7855 20.7955L33.9237 18.6902Z" fill="white"/>
<path d="M36.7932 19.7174C36.1359 19.251 35.3012 19.2172 34.9824 19.224C35.0797 19.5256 35.382 20.2993 36.0393 20.7659C36.6983 21.2335 37.5319 21.2662 37.8502 21.2596C37.753 20.9581 37.4507 20.1841 36.7932 19.7174Z" fill="#E61D2B"/>
<path d="M39.3867 28.1533L35.0735 27.8153C34.946 27.8053 34.8179 27.8203 34.6963 27.8595C34.5747 27.8988 34.4621 27.9614 34.3648 28.0439C34.2676 28.1264 34.1877 28.227 34.1296 28.3402C34.0716 28.4534 34.0365 28.5768 34.0265 28.7034C34.0164 28.83 34.0315 28.9574 34.071 29.0782C34.1105 29.199 34.1736 29.3109 34.2566 29.4075C34.3396 29.5041 34.4409 29.5835 34.5548 29.6412C34.6687 29.6989 34.7929 29.7337 34.9204 29.7437V29.7437L39.2336 30.0817C39.491 30.1019 39.7459 30.0197 39.9423 29.8531C40.1386 29.6865 40.2603 29.4493 40.2806 29.1936C40.301 28.9378 40.2182 28.6846 40.0505 28.4895C39.8829 28.2944 39.6441 28.1735 39.3867 28.1533V28.1533Z" fill="#E61D2B"/>
<path d="M59.7261 19.5068L35.5431 17.6113C35.2618 17.5893 34.9789 17.6226 34.7106 17.7092C34.4422 17.7958 34.1937 17.9341 33.9791 18.1161C33.7646 18.2982 33.5882 18.5204 33.4601 18.7702C33.332 19.02 33.2547 19.2924 33.2326 19.5718L32.3025 31.2774C32.2578 31.842 32.4406 32.401 32.8107 32.8317C33.1808 33.2624 33.7079 33.5294 34.2761 33.5741L58.4591 35.4696C58.7404 35.4916 59.0232 35.4584 59.2916 35.3717C59.5599 35.2851 59.8085 35.1468 60.023 34.9648C60.2376 34.7827 60.4139 34.5605 60.542 34.3107C60.6701 34.0609 60.7475 33.7885 60.7696 33.5091L61.6534 22.3834L61.6712 22.1561L61.6993 21.8024C61.7215 21.5229 61.688 21.2419 61.6008 20.9753C61.5137 20.7087 61.3745 20.4617 61.1912 20.2486C61.008 20.0354 60.7843 19.8602 60.5329 19.7329C60.2815 19.6056 60.0074 19.5288 59.7261 19.5068V19.5068ZM59.012 29.6913L58.8587 31.6198C58.8307 31.9604 58.6681 32.2761 58.4065 32.4979C58.1448 32.7198 57.8054 32.8296 57.4625 32.8035L54.2272 32.5503C53.8844 32.5224 53.5666 32.3609 53.3433 32.1009C53.12 31.841 53.0094 31.5038 53.0357 31.163L53.1889 29.2346C53.2171 28.894 53.3797 28.5783 53.6413 28.3565C53.9029 28.1347 54.2423 28.0248 54.5852 28.0508L57.8194 28.3043C58.1622 28.3323 58.48 28.4938 58.7034 28.7536C58.9268 29.0135 59.0377 29.3505 59.012 29.6913V29.6913ZM33.812 28.6857C33.8371 28.3737 33.9857 28.0842 34.2254 27.881C34.465 27.6777 34.776 27.5771 35.0901 27.6013L39.4032 27.9396C39.559 27.9516 39.7109 27.9939 39.8502 28.0642C39.9896 28.1345 40.1136 28.2314 40.2152 28.3494C40.3168 28.4673 40.394 28.604 40.4425 28.7516C40.4909 28.8992 40.5095 29.0549 40.4974 29.2097C40.4852 29.3645 40.4425 29.5154 40.3716 29.6537C40.3007 29.7921 40.2031 29.9152 40.0843 30.0161C39.9655 30.117 39.8279 30.1936 39.6793 30.2416C39.5306 30.2896 39.374 30.308 39.2182 30.2958L39.216 30.2964L34.9029 29.9581C34.7471 29.9459 34.5953 29.9032 34.4561 29.8326C34.317 29.762 34.1932 29.6649 34.0918 29.5467C33.9905 29.4285 33.9136 29.2916 33.8656 29.1439C33.8176 28.9962 33.7994 28.8405 33.812 28.6857V28.6857ZM34.7353 19.1475L34.7058 19.0276L34.8299 19.0163C34.8784 19.0111 36.0258 18.9088 36.9189 19.5426C37.812 20.1765 38.0858 21.2886 38.0977 21.3351L38.1261 21.4552L38.0023 21.4676C37.8266 21.4806 37.6501 21.4794 37.4746 21.4642C36.9162 21.4317 36.3769 21.2507 35.9131 20.9402C35.02 20.3064 34.7461 19.1943 34.7353 19.1475V19.1475Z" fill="#E61D2B"/>
<path d="M55.3837 30.9702L53.9819 30.8604C53.8819 30.8527 53.7829 30.8848 53.7067 30.9496C53.6305 31.0143 53.5833 31.1065 53.5754 31.2058C53.5675 31.3051 53.5996 31.4035 53.6647 31.4794C53.7297 31.5552 53.8224 31.6023 53.9224 31.6103L55.3241 31.7202C55.4241 31.7278 55.5231 31.6958 55.5993 31.631C55.6755 31.5662 55.7228 31.4741 55.7307 31.3747C55.7386 31.2754 55.7064 31.177 55.6414 31.1012C55.5763 31.0253 55.4837 30.9782 55.3837 30.9702V30.9702Z" fill="#E61D2B"/>
<path d="M57.9713 31.1731L56.5695 31.0632C56.4696 31.0556 56.3707 31.0877 56.2945 31.1525C56.2184 31.2173 56.1712 31.3094 56.1633 31.4087C56.1554 31.508 56.1875 31.6063 56.2525 31.6822C56.3175 31.758 56.4101 31.8051 56.51 31.8132L57.9118 31.923C58.0118 31.9306 58.1107 31.8985 58.1868 31.8337C58.263 31.769 58.3102 31.6769 58.318 31.5776C58.3259 31.4783 58.2939 31.3799 58.2289 31.3041C58.1639 31.2283 58.0713 31.1812 57.9713 31.1731V31.1731Z" fill="#E61D2B"/>
<path d="M55.4596 30.006L54.0578 29.8962C53.9579 29.8886 53.859 29.9207 53.7828 29.9855C53.7066 30.0502 53.6594 30.1424 53.6516 30.2416C53.6437 30.3409 53.6758 30.4393 53.7408 30.5151C53.8057 30.5909 53.8984 30.6381 53.9983 30.6461L55.4001 30.756C55.5001 30.7637 55.599 30.7316 55.6752 30.6668C55.7515 30.6021 55.7987 30.5099 55.8066 30.4105C55.8145 30.3112 55.7824 30.2128 55.7173 30.137C55.6523 30.0611 55.5596 30.0141 55.4596 30.006V30.006Z" fill="#E61D2B"/>
<path d="M58.0478 30.2089L56.646 30.099C56.546 30.0914 56.447 30.1234 56.3708 30.1882C56.2946 30.253 56.2473 30.3451 56.2395 30.4445C56.2316 30.5438 56.2637 30.6422 56.3287 30.718C56.3938 30.7938 56.4865 30.8409 56.5864 30.849L57.9882 30.9588C58.0882 30.9665 58.1872 30.9344 58.2634 30.8696C58.3396 30.8049 58.3869 30.7127 58.3947 30.6134C58.4026 30.514 58.3705 30.4157 58.3055 30.3398C58.2404 30.264 58.1477 30.2169 58.0478 30.2089V30.2089Z" fill="#E61D2B"/>
<path d="M55.537 29.0418L54.1352 28.932C54.0352 28.9243 53.9363 28.9564 53.8601 29.0211C53.7838 29.0859 53.7366 29.1781 53.7287 29.2774C53.7208 29.3767 53.7529 29.4751 53.818 29.551C53.883 29.6268 53.9757 29.6739 54.0757 29.6819L55.4775 29.7918C55.5774 29.7994 55.6763 29.7673 55.7525 29.7025C55.8287 29.6377 55.8759 29.5456 55.8837 29.4463C55.8916 29.347 55.8596 29.2487 55.7946 29.1728C55.7296 29.097 55.6369 29.0499 55.537 29.0418V29.0418Z" fill="#E61D2B"/>
<path d="M58.1247 29.2446L56.7229 29.1348C56.6229 29.1272 56.524 29.1593 56.4478 29.224C56.3717 29.2888 56.3245 29.3809 56.3166 29.4802C56.3087 29.5795 56.3408 29.6779 56.4058 29.7537C56.4708 29.8295 56.5634 29.8766 56.6633 29.8847L58.0651 29.9946C58.1651 30.0022 58.264 29.97 58.3401 29.9053C58.4163 29.8405 58.4635 29.7484 58.4714 29.6491C58.4793 29.5498 58.4472 29.4515 58.3822 29.3756C58.3172 29.2998 58.2246 29.2527 58.1247 29.2446V29.2446Z" fill="#E61D2B"/>
<path d="M32.8725 23.2653L32.8545 23.4932L61.2421 25.7087L61.2601 25.4808L32.8725 23.2653Z" fill="white"/>
<path d="M61.6706 22.1561L61.6528 22.3834L60.6648 22.3064L50.1387 21.4849L50.1576 21.2573L60.6826 22.079L61.6706 22.1561Z" fill="#3F3D56"/>
<path d="M26.967 19.74C26.967 19.74 25.4303 26.1865 27.3085 26.1865C29.1867 26.1865 33.6261 18.8918 33.6261 18.8918L32.0894 17.0258L29.3312 20.8305L29.1867 18.8918L26.967 19.74Z" fill="#A0616A"/>
<path d="M33.2176 19.1721C34.0433 19.1721 34.7126 18.5071 34.7126 17.6868C34.7126 16.8665 34.0433 16.2015 33.2176 16.2015C32.392 16.2015 31.7227 16.8665 31.7227 17.6868C31.7227 18.5071 32.392 19.1721 33.2176 19.1721Z" fill="#A0616A"/>
<path d="M30.7726 14.3115L29.7481 13.2936C29.7481 13.2936 27.6991 14.4811 27.5284 15.6686C27.3576 16.8561 26.5039 20.5883 26.5039 20.5883L29.6627 20.8428L30.6872 19.316L30.7726 14.3115Z" fill="#E6E6E6"/>
</svg>
