<svg width="91" height="67" viewBox="0 0 91 67" fill="none" xmlns="http://www.w3.org/2000/svg">
<g clip-path="url(#clip0_1_296)">
<path d="M26.5537 6.59272L27.5155 8.08811L30.9469 6.3959L32.7112 5.85932C32.9404 5.7896 33.1472 5.66127 33.3109 5.48715C33.4746 5.31302 33.5895 5.0992 33.6442 4.86705C33.6988 4.6349 33.6912 4.39256 33.6222 4.16423C33.5532 3.9359 33.4251 3.72959 33.2509 3.56592V3.56592C32.9926 3.32338 32.6497 3.19013 32.2945 3.19431C31.9394 3.19849 31.5998 3.33975 31.3473 3.5883L29.8668 5.04603L26.5537 6.59272Z" fill="#A0616A"/>
<path d="M28.1763 8.0184L26.8939 6.02454L22.0314 8.15262C21.6822 8.30543 21.3787 8.54541 21.1501 8.84927C20.9216 9.15313 20.7759 9.51058 20.7272 9.88694V9.88694C20.667 10.351 20.757 10.8221 20.9841 11.2318C21.2112 11.6416 21.5636 11.9688 21.9902 12.1659L29.7416 15.6334C30.2766 15.8807 30.8876 15.91 31.4441 15.7152C32.0006 15.5203 32.4584 15.1168 32.7198 14.5907V14.5907C32.8603 14.3077 32.9395 13.9985 32.952 13.6831C32.9645 13.3678 32.9101 13.0533 32.7923 12.7602C32.6746 12.4672 32.4961 12.202 32.2685 11.9821C32.0409 11.7622 31.7694 11.5924 31.4715 11.4838L25.6569 9.48147L28.1763 8.0184Z" fill="#E61D2B"/>
<path d="M79.4964 41.867C79.4964 41.2681 79.2942 40.7821 79.046 40.7809H11.3698C11.1204 40.7821 10.9193 41.2681 10.9182 41.867V66.5216C10.9182 66.5772 10.8974 66.6308 10.8599 66.672C10.8223 66.7132 10.7707 66.739 10.7151 66.7444C10.5334 66.7617 10.3518 66.7779 10.1701 66.7928C10.1656 66.7928 10.1611 66.7939 10.1566 66.7939C10.0578 66.8028 9.95895 66.8095 9.8601 66.8174H9.85897C9.80813 66.7239 9.75787 66.6295 9.7082 66.5344C9.6914 66.5023 9.68263 66.4667 9.68262 66.4306V40.458C9.68262 40.2926 9.68936 40.1261 9.70059 39.9619C9.71662 39.7363 9.74475 39.5118 9.78484 39.2892C9.97467 38.2512 10.4038 37.5483 10.8913 37.5461H79.5233C79.5945 37.5466 79.6648 37.5614 79.73 37.5897C79.8258 37.6318 79.9124 37.6922 79.985 37.7673C80.0835 37.8692 80.1678 37.9838 80.2355 38.1081C80.4759 38.5294 80.6477 39.1574 80.7084 39.8881C80.7084 39.8948 80.7095 39.9015 80.7095 39.9082C80.7253 40.0893 80.7331 40.2736 80.732 40.458L80.7477 42.8526L80.7578 44.2806L80.7882 48.7614L80.7994 50.3525L80.8488 66.6889C80.8488 66.7481 80.8251 66.805 80.783 66.8469C80.7409 66.8888 80.6837 66.9123 80.6242 66.9123H79.721C79.6615 66.9123 79.6043 66.8888 79.5622 66.8469C79.5201 66.805 79.4964 66.7481 79.4964 66.6889V41.867Z" fill="#E6E6E6"/>
<path d="M11.3985 54.0776L9.94238 53.8174L10.258 48.1064L12.4072 48.4904L11.3985 54.0776Z" fill="#A0616A"/>
<path d="M11.177 55.5978L6.69922 54.7979L6.70939 54.7416C6.7924 54.2818 7.05563 53.8736 7.44116 53.6068C7.82669 53.3401 8.30295 53.2366 8.76519 53.3191L8.7653 53.3191L9.69464 52.8479L11.1093 53.7378L11.5002 53.8076L11.177 55.5978Z" fill="#2F2E41"/>
<path d="M46.7142 48.0496H37.7854C37.5461 48.0493 37.3167 47.9546 37.1475 47.7863C36.9783 47.618 36.8831 47.3898 36.8828 47.1517V39.025C36.8831 38.787 36.9783 38.5588 37.1475 38.3905C37.3167 38.2221 37.5461 38.1275 37.7854 38.1272H46.7142C46.9535 38.1275 47.1829 38.2221 47.3521 38.3905C47.5213 38.5588 47.6165 38.787 47.6168 39.025V47.1517C47.6165 47.3898 47.5213 47.618 47.3521 47.7863C47.1829 47.9546 46.9535 48.0493 46.7142 48.0496V48.0496Z" fill="#3F3D56"/>
<path d="M46.0863 47.3013H38.4127C38.2002 47.3011 37.9965 47.217 37.8463 47.0676C37.6961 46.9181 37.6116 46.7155 37.6113 46.5041V39.6727C37.6116 39.4614 37.6961 39.2588 37.8463 39.1093C37.9965 38.9599 38.2002 38.8758 38.4127 38.8755H46.0863C46.2988 38.8758 46.5025 38.9599 46.6527 39.1093C46.8029 39.2588 46.8874 39.4614 46.8877 39.6727V46.5041C46.8874 46.7155 46.8029 46.9181 46.6527 47.0676C46.5025 47.217 46.2988 47.3011 46.0863 47.3013Z" fill="white"/>
<path d="M45.3214 40.8644H39.1788C39.1257 40.8644 39.0748 40.8434 39.0372 40.806C38.9996 40.7686 38.9785 40.718 38.9785 40.6651C38.9785 40.6122 38.9996 40.5616 39.0372 40.5242C39.0748 40.4868 39.1257 40.4658 39.1788 40.4658H45.3214C45.3746 40.4658 45.4255 40.4868 45.4631 40.5242C45.5007 40.5616 45.5218 40.6122 45.5218 40.6651C45.5218 40.718 45.5007 40.7686 45.4631 40.806C45.4255 40.8434 45.3746 40.8644 45.3214 40.8644V40.8644Z" fill="#E61D2B"/>
<path d="M45.3215 41.6519H39.1789C39.1257 41.6519 39.0748 41.6309 39.0372 41.5935C38.9996 41.5561 38.9785 41.5055 38.9785 41.4526C38.9785 41.3997 38.9996 41.349 39.0372 41.3117C39.0748 41.2743 39.1257 41.2533 39.1789 41.2533H45.3215C45.3746 41.2533 45.4255 41.2743 45.4631 41.3117C45.5007 41.349 45.5218 41.3997 45.5218 41.4526C45.5218 41.5055 45.5007 41.5561 45.4631 41.5935C45.4255 41.6309 45.3746 41.6519 45.3215 41.6519Z" fill="#E61D2B"/>
<path d="M41.8415 42.4394H39.1789C39.1257 42.4394 39.0748 42.4184 39.0372 42.381C38.9996 42.3436 38.9785 42.2929 38.9785 42.2401C38.9785 42.1872 38.9996 42.1365 39.0372 42.0991C39.0748 42.0618 39.1257 42.0408 39.1789 42.0408H41.8415C41.8947 42.0408 41.9456 42.0618 41.9832 42.0991C42.0208 42.1365 42.0419 42.1872 42.0419 42.2401C42.0419 42.2929 42.0208 42.3436 41.9832 42.381C41.9456 42.4184 41.8947 42.4394 41.8415 42.4394Z" fill="#E61D2B"/>
<path d="M45.3214 44.0886H39.1788C39.1257 44.0886 39.0748 44.0676 39.0372 44.0303C38.9996 43.9929 38.9785 43.9422 38.9785 43.8893C38.9785 43.8365 38.9996 43.7858 39.0372 43.7484C39.0748 43.7111 39.1257 43.6901 39.1788 43.6901H45.3214C45.3746 43.6901 45.4255 43.7111 45.4631 43.7484C45.5007 43.7858 45.5218 43.8365 45.5218 43.8893C45.5218 43.9422 45.5007 43.9929 45.4631 44.0303C45.4255 44.0676 45.3746 44.0886 45.3214 44.0886V44.0886Z" fill="#E4E4E4"/>
<path d="M45.321 44.8761H39.1783C39.152 44.8762 39.1259 44.8711 39.1015 44.8611C39.0772 44.8511 39.055 44.8364 39.0364 44.8179C39.0177 44.7994 39.0029 44.7774 38.9928 44.7532C38.9827 44.729 38.9775 44.703 38.9775 44.6768C38.9775 44.6506 38.9827 44.6247 38.9928 44.6005C39.0029 44.5762 39.0177 44.5543 39.0364 44.5357C39.055 44.5172 39.0772 44.5026 39.1015 44.4926C39.1259 44.4826 39.152 44.4775 39.1783 44.4775H45.321C45.3741 44.4775 45.425 44.4985 45.4626 44.5359C45.5002 44.5733 45.5213 44.624 45.5213 44.6768C45.5213 44.7297 45.5002 44.7804 45.4626 44.8178C45.425 44.8551 45.3741 44.8761 45.321 44.8761V44.8761Z" fill="#E4E4E4"/>
<path d="M41.8415 45.6635H39.1789C39.1257 45.6635 39.0748 45.6425 39.0372 45.6051C38.9996 45.5677 38.9785 45.5171 38.9785 45.4642C38.9785 45.4113 38.9996 45.3606 39.0372 45.3233C39.0748 45.2859 39.1257 45.2649 39.1789 45.2649H41.8415C41.8947 45.2649 41.9456 45.2859 41.9832 45.3233C42.0208 45.3606 42.0419 45.4113 42.0419 45.4642C42.0419 45.5171 42.0208 45.5677 41.9832 45.6051C41.9456 45.6425 41.8947 45.6635 41.8415 45.6635Z" fill="#E4E4E4"/>
<path d="M61.1075 26.3413H53.8152C53.7121 26.3415 53.6132 26.3824 53.5404 26.455C53.4675 26.5277 53.4266 26.6261 53.4268 26.7288V38.188H61.497V26.7288C61.497 26.6779 61.4869 26.6275 61.4674 26.5805C61.4478 26.5334 61.4191 26.4907 61.3829 26.4547C61.3468 26.4187 61.3038 26.3902 61.2566 26.3707C61.2093 26.3513 61.1586 26.3413 61.1075 26.3413V26.3413ZM57.4859 32.8523C57.2578 32.8513 57.0394 32.7607 56.8782 32.6003C56.7169 32.4399 56.6259 32.2226 56.6248 31.9957V30.674C56.6251 30.447 56.7159 30.2294 56.8774 30.069C57.0388 29.9085 57.2577 29.8184 57.4859 29.8184C57.7141 29.8184 57.933 29.9085 58.0944 30.069C58.2559 30.2294 58.3467 30.447 58.347 30.674V31.9957C58.3459 32.2226 58.2549 32.4399 58.0936 32.6003C57.9323 32.7607 57.7139 32.8513 57.4859 32.8523Z" fill="#2F2E41"/>
<path d="M53.4014 37.8215V38.9271C53.4015 38.9844 53.4244 39.0393 53.4651 39.0798C53.5059 39.1204 53.5611 39.1432 53.6186 39.1433H61.3044C61.3619 39.143 61.417 39.1201 61.4577 39.0797C61.4984 39.0392 61.5213 38.9844 61.5216 38.9271V37.8215H53.4014Z" fill="#3F3D56"/>
<path d="M73.1827 8.45782H42.0113C41.7434 8.45825 41.4867 8.56427 41.2974 8.75265C41.108 8.94103 41.0014 9.1964 41.001 9.46281V30.3873C41.0012 30.6538 41.1078 30.9092 41.2972 31.0977C41.4866 31.2861 41.7434 31.392 42.0113 31.3923H73.1827C73.4505 31.392 73.7074 31.2861 73.8968 31.0977C74.0862 30.9092 74.1927 30.6538 74.193 30.3873V9.46281C74.1925 9.1964 74.086 8.94103 73.8966 8.75265C73.7072 8.56427 73.4505 8.45825 73.1827 8.45782V8.45782Z" fill="#3F3D56"/>
<path d="M72.9225 9.18372H42.2717C42.1283 9.18403 41.9909 9.24091 41.8896 9.34187C41.7883 9.44284 41.7315 9.57966 41.7314 9.7223V30.1282C41.7317 30.2706 41.7887 30.4072 41.89 30.5079C41.9912 30.6087 42.1285 30.6654 42.2717 30.6656H72.9225C73.0658 30.6654 73.203 30.6087 73.3043 30.5079C73.4056 30.4072 73.4626 30.2706 73.4628 30.1282V9.7223C73.4628 9.57966 73.4059 9.44284 73.3046 9.34187C73.2033 9.24091 73.0659 9.18403 72.9225 9.18372V9.18372Z" fill="white"/>
<path d="M66.9519 39.528H48.7163C48.6664 39.528 48.6171 39.5169 48.572 39.4955C48.527 39.4742 48.4873 39.4431 48.4558 39.4045C48.4244 39.366 48.402 39.3209 48.3902 39.2726C48.3785 39.2244 48.3778 39.1741 48.3881 39.1255L48.671 37.7887C48.6871 37.7139 48.7284 37.6468 48.7881 37.5986C48.8478 37.5505 48.9223 37.524 48.9992 37.5237H66.669C66.7459 37.524 66.8203 37.5505 66.88 37.5986C66.9397 37.6468 66.9811 37.7139 66.9972 37.7887L67.2801 39.1255C67.2904 39.1741 67.2897 39.2244 67.2779 39.2726C67.2662 39.3209 67.2438 39.366 67.2124 39.4045C67.1809 39.4431 67.1412 39.4742 67.0961 39.4955C67.0511 39.5169 67.0018 39.528 66.9519 39.528H66.9519Z" fill="#2F2E41"/>
<path d="M49.6357 37.7645H49.1837C49.1535 37.7645 49.1289 37.7889 49.1289 37.8191V38.0452C49.1289 38.0753 49.1535 38.0997 49.1837 38.0997H49.6357C49.666 38.0997 49.6905 38.0753 49.6905 38.0452V37.8191C49.6905 37.7889 49.666 37.7645 49.6357 37.7645Z" fill="#3F3D56"/>
<path d="M50.7588 37.7645H50.3068C50.2765 37.7645 50.252 37.7889 50.252 37.819V38.0451C50.252 38.0753 50.2765 38.0997 50.3068 38.0997H50.7588C50.789 38.0997 50.8136 38.0753 50.8136 38.0451V37.819C50.8136 37.7889 50.789 37.7645 50.7588 37.7645Z" fill="#3F3D56"/>
<path d="M51.8818 37.7645H51.4298C51.3996 37.7645 51.375 37.7889 51.375 37.8191V38.0452C51.375 38.0753 51.3996 38.0997 51.4298 38.0997H51.8818C51.9121 38.0997 51.9366 38.0753 51.9366 38.0452V37.8191C51.9366 37.7889 51.9121 37.7645 51.8818 37.7645Z" fill="#3F3D56"/>
<path d="M53.0048 37.7645H52.5529C52.5226 37.7645 52.498 37.7889 52.498 37.819V38.0451C52.498 38.0753 52.5226 38.0997 52.5529 38.0997H53.0048C53.0351 38.0997 53.0597 38.0753 53.0597 38.0451V37.819C53.0597 37.7889 53.0351 37.7645 53.0048 37.7645Z" fill="#3F3D56"/>
<path d="M54.1279 37.7645H53.6759C53.6456 37.7645 53.6211 37.7889 53.6211 37.8191V38.0452C53.6211 38.0753 53.6456 38.0997 53.6759 38.0997H54.1279C54.1582 38.0997 54.1827 38.0753 54.1827 38.0452V37.8191C54.1827 37.7889 54.1582 37.7645 54.1279 37.7645Z" fill="#3F3D56"/>
<path d="M55.2519 37.7645H54.8C54.7697 37.7645 54.7451 37.7889 54.7451 37.819V38.0451C54.7451 38.0753 54.7697 38.0997 54.8 38.0997H55.2519C55.2822 38.0997 55.3068 38.0753 55.3068 38.0451V37.819C55.3068 37.7889 55.2822 37.7645 55.2519 37.7645Z" fill="#3F3D56"/>
<path d="M56.375 37.7645H55.923C55.8927 37.7645 55.8682 37.7889 55.8682 37.8191V38.0452C55.8682 38.0753 55.8927 38.0997 55.923 38.0997H56.375C56.4053 38.0997 56.4298 38.0753 56.4298 38.0452V37.8191C56.4298 37.7889 56.4053 37.7645 56.375 37.7645Z" fill="#3F3D56"/>
<path d="M57.499 37.7645H57.047C57.0167 37.7645 56.9922 37.7889 56.9922 37.8191V38.0452C56.9922 38.0753 57.0167 38.0997 57.047 38.0997H57.499C57.5293 38.0997 57.5538 38.0753 57.5538 38.0452V37.8191C57.5538 37.7889 57.5293 37.7645 57.499 37.7645Z" fill="#3F3D56"/>
<path d="M58.622 37.7645H58.1701C58.1398 37.7645 58.1152 37.7889 58.1152 37.8191V38.0452C58.1152 38.0753 58.1398 38.0997 58.1701 38.0997H58.622C58.6523 38.0997 58.6769 38.0753 58.6769 38.0452V37.8191C58.6769 37.7889 58.6523 37.7645 58.622 37.7645Z" fill="#3F3D56"/>
<path d="M59.7451 37.7645H59.2931C59.2628 37.7645 59.2383 37.7889 59.2383 37.8191V38.0452C59.2383 38.0753 59.2628 38.0997 59.2931 38.0997H59.7451C59.7754 38.0997 59.7999 38.0753 59.7999 38.0452V37.8191C59.7999 37.7889 59.7754 37.7645 59.7451 37.7645Z" fill="#3F3D56"/>
<path d="M60.8681 37.7645H60.4162C60.3859 37.7645 60.3613 37.7889 60.3613 37.819V38.0451C60.3613 38.0753 60.3859 38.0997 60.4162 38.0997H60.8681C60.8984 38.0997 60.923 38.0753 60.923 38.0451V37.819C60.923 37.7889 60.8984 37.7645 60.8681 37.7645Z" fill="#3F3D56"/>
<path d="M61.9912 37.7645H61.5392C61.5089 37.7645 61.4844 37.7889 61.4844 37.8191V38.0452C61.4844 38.0753 61.5089 38.0997 61.5392 38.0997H61.9912C62.0215 38.0997 62.046 38.0753 62.046 38.0452V37.8191C62.046 37.7889 62.0215 37.7645 61.9912 37.7645Z" fill="#3F3D56"/>
<path d="M63.1152 37.7645H62.6632C62.6329 37.7645 62.6084 37.7889 62.6084 37.819V38.0451C62.6084 38.0753 62.6329 38.0997 62.6632 38.0997H63.1152C63.1455 38.0997 63.17 38.0753 63.17 38.0451V37.819C63.17 37.7889 63.1455 37.7645 63.1152 37.7645Z" fill="#3F3D56"/>
<path d="M64.2382 37.7645H63.7863C63.756 37.7645 63.7314 37.7889 63.7314 37.8191V38.0452C63.7314 38.0753 63.756 38.0997 63.7863 38.0997H64.2382C64.2685 38.0997 64.2931 38.0753 64.2931 38.0452V37.8191C64.2931 37.7889 64.2685 37.7645 64.2382 37.7645Z" fill="#3F3D56"/>
<path d="M65.3613 37.7645H64.9093C64.879 37.7645 64.8545 37.7889 64.8545 37.819V38.0451C64.8545 38.0753 64.879 38.0997 64.9093 38.0997H65.3613C65.3916 38.0997 65.4161 38.0753 65.4161 38.0451V37.819C65.4161 37.7889 65.3916 37.7645 65.3613 37.7645Z" fill="#3F3D56"/>
<path d="M66.4853 37.7645H66.0333C66.0031 37.7645 65.9785 37.7889 65.9785 37.8191V38.0452C65.9785 38.0753 66.0031 38.0997 66.0333 38.0997H66.4853C66.5156 38.0997 66.5401 38.0753 66.5401 38.0452V37.8191C66.5401 37.7889 66.5156 37.7645 66.4853 37.7645Z" fill="#3F3D56"/>
<path d="M49.622 38.3231H49.1701C49.1398 38.3231 49.1152 38.3475 49.1152 38.3777V38.6038C49.1152 38.6339 49.1398 38.6583 49.1701 38.6583H49.622C49.6523 38.6583 49.6769 38.6339 49.6769 38.6038V38.3777C49.6769 38.3475 49.6523 38.3231 49.622 38.3231Z" fill="#3F3D56"/>
<path d="M50.7451 38.3232H50.2931C50.2628 38.3232 50.2383 38.3476 50.2383 38.3777V38.6039C50.2383 38.634 50.2628 38.6584 50.2931 38.6584H50.7451C50.7753 38.6584 50.7999 38.634 50.7999 38.6039V38.3777C50.7999 38.3476 50.7753 38.3232 50.7451 38.3232Z" fill="#3F3D56"/>
<path d="M51.8681 38.3231H51.4162C51.3859 38.3231 51.3613 38.3475 51.3613 38.3777V38.6038C51.3613 38.6339 51.3859 38.6583 51.4162 38.6583H51.8681C51.8984 38.6583 51.923 38.6339 51.923 38.6038V38.3777C51.923 38.3475 51.8984 38.3231 51.8681 38.3231Z" fill="#3F3D56"/>
<path d="M52.9921 38.3231H52.5402C52.5099 38.3231 52.4854 38.3475 52.4854 38.3777V38.6038C52.4854 38.6339 52.5099 38.6583 52.5402 38.6583H52.9921C53.0224 38.6583 53.047 38.6339 53.047 38.6038V38.3777C53.047 38.3475 53.0224 38.3231 52.9921 38.3231Z" fill="#3F3D56"/>
<path d="M54.1152 38.3231H53.6632C53.6329 38.3231 53.6084 38.3475 53.6084 38.3777V38.6038C53.6084 38.6339 53.6329 38.6583 53.6632 38.6583H54.1152C54.1455 38.6583 54.17 38.6339 54.17 38.6038V38.3777C54.17 38.3475 54.1455 38.3231 54.1152 38.3231Z" fill="#3F3D56"/>
<path d="M55.2392 38.3231H54.7873C54.757 38.3231 54.7324 38.3475 54.7324 38.3777V38.6038C54.7324 38.6339 54.757 38.6583 54.7873 38.6583H55.2392C55.2695 38.6583 55.2941 38.6339 55.2941 38.6038V38.3777C55.2941 38.3475 55.2695 38.3231 55.2392 38.3231Z" fill="#3F3D56"/>
<path d="M56.3623 38.3232H55.9103C55.88 38.3232 55.8555 38.3476 55.8555 38.3777V38.6039C55.8555 38.634 55.88 38.6584 55.9103 38.6584H56.3623C56.3926 38.6584 56.4171 38.634 56.4171 38.6039V38.3777C56.4171 38.3476 56.3926 38.3232 56.3623 38.3232Z" fill="#3F3D56"/>
<path d="M57.4853 38.3231H57.0334C57.0031 38.3231 56.9785 38.3475 56.9785 38.3777V38.6038C56.9785 38.6339 57.0031 38.6583 57.0334 38.6583H57.4853C57.5156 38.6583 57.5402 38.6339 57.5402 38.6038V38.3777C57.5402 38.3475 57.5156 38.3231 57.4853 38.3231Z" fill="#3F3D56"/>
<path d="M58.6084 38.3232H58.1564C58.1261 38.3232 58.1016 38.3476 58.1016 38.3777V38.6039C58.1016 38.634 58.1261 38.6584 58.1564 38.6584H58.6084C58.6386 38.6584 58.6632 38.634 58.6632 38.6039V38.3777C58.6632 38.3476 58.6386 38.3232 58.6084 38.3232Z" fill="#3F3D56"/>
<path d="M59.7314 38.3231H59.2794C59.2492 38.3231 59.2246 38.3475 59.2246 38.3777V38.6038C59.2246 38.6339 59.2492 38.6583 59.2794 38.6583H59.7314C59.7617 38.6583 59.7863 38.6339 59.7863 38.6038V38.3777C59.7863 38.3475 59.7617 38.3231 59.7314 38.3231Z" fill="#3F3D56"/>
<path d="M60.8545 38.3232H60.4025C60.3722 38.3232 60.3477 38.3476 60.3477 38.3777V38.6039C60.3477 38.634 60.3722 38.6584 60.4025 38.6584H60.8545C60.8847 38.6584 60.9093 38.634 60.9093 38.6039V38.3777C60.9093 38.3476 60.8847 38.3232 60.8545 38.3232Z" fill="#3F3D56"/>
<path d="M61.9775 38.3231H61.5255C61.4953 38.3231 61.4707 38.3475 61.4707 38.3777V38.6038C61.4707 38.6339 61.4953 38.6583 61.5255 38.6583H61.9775C62.0078 38.6583 62.0323 38.6339 62.0323 38.6038V38.3777C62.0323 38.3475 62.0078 38.3231 61.9775 38.3231Z" fill="#3F3D56"/>
<path d="M63.1015 38.3232H62.6496C62.6193 38.3232 62.5947 38.3476 62.5947 38.3777V38.6039C62.5947 38.634 62.6193 38.6584 62.6496 38.6584H63.1015C63.1318 38.6584 63.1564 38.634 63.1564 38.6039V38.3777C63.1564 38.3476 63.1318 38.3232 63.1015 38.3232Z" fill="#3F3D56"/>
<path d="M64.2246 38.3231H63.7726C63.7423 38.3231 63.7178 38.3475 63.7178 38.3777V38.6038C63.7178 38.6339 63.7423 38.6583 63.7726 38.6583H64.2246C64.2548 38.6583 64.2794 38.6339 64.2794 38.6038V38.3777C64.2794 38.3475 64.2548 38.3231 64.2246 38.3231Z" fill="#3F3D56"/>
<path d="M65.3476 38.3232H64.8957C64.8654 38.3232 64.8408 38.3476 64.8408 38.3777V38.6039C64.8408 38.634 64.8654 38.6584 64.8957 38.6584H65.3476C65.3779 38.6584 65.4025 38.634 65.4025 38.6039V38.3777C65.4025 38.3476 65.3779 38.3232 65.3476 38.3232Z" fill="#3F3D56"/>
<path d="M66.4716 38.3231H66.0197C65.9894 38.3231 65.9648 38.3475 65.9648 38.3777V38.6038C65.9648 38.6339 65.9894 38.6583 66.0197 38.6583H66.4716C66.5019 38.6583 66.5265 38.6339 66.5265 38.6038V38.3777C66.5265 38.3475 66.5019 38.3231 66.4716 38.3231Z" fill="#3F3D56"/>
<path d="M58.9461 38.9937H54.5626C54.5324 38.9937 54.5078 39.0181 54.5078 39.0482V39.2743C54.5078 39.3044 54.5324 39.3289 54.5626 39.3289H58.9461C58.9764 39.3289 59.0009 39.3044 59.0009 39.2743V39.0482C59.0009 39.0181 58.9764 38.9937 58.9461 38.9937Z" fill="#3F3D56"/>
<path d="M70.8119 65.0309L69.9458 63.6465L69.7728 64.4376C69.7425 64.5762 69.7122 64.7169 69.6841 64.8566C69.4381 64.6477 69.1764 64.4543 68.9203 64.2689C68.134 63.7012 67.3481 63.1328 66.5625 62.5637L66.8085 63.9828C66.9601 64.8566 67.1185 65.7483 67.4937 66.5472C67.5353 66.6377 67.5802 66.7271 67.6285 66.8143H71.2837C71.3131 66.7333 71.3334 66.6494 71.3443 66.564C71.3452 66.5585 71.3456 66.5528 71.3454 66.5472C71.4027 66.0053 71.1017 65.4946 70.8119 65.0309Z" fill="#F0F0F0"/>
<path d="M21.387 65.0309L20.521 63.6464L20.348 64.4375C20.3177 64.5761 20.2874 64.7169 20.2593 64.8566C20.0133 64.6476 19.7516 64.4543 19.4955 64.2688C18.7092 63.7012 17.9233 63.1328 17.1377 62.5637L17.3837 63.9827C17.5353 64.8566 17.6937 65.7482 18.0689 66.5472C18.1105 66.6377 18.1554 66.7271 18.2037 66.8142H21.8588C21.8882 66.7333 21.9086 66.6493 21.9195 66.5639C21.9204 66.5584 21.9208 66.5528 21.9206 66.5472C21.9779 66.0052 21.6769 65.4946 21.387 65.0309Z" fill="#F0F0F0"/>
<path d="M90.8658 66.9657L59.8916 67C59.8561 67 59.8221 66.986 59.797 66.961C59.7719 66.9361 59.7578 66.9023 59.7578 66.867C59.7578 66.8317 59.7719 66.7978 59.797 66.7729C59.8221 66.7479 59.8561 66.7339 59.8916 66.7339L90.8658 66.6996C90.9013 66.6996 90.9353 66.7136 90.9604 66.7386C90.9855 66.7635 90.9996 66.7973 90.9996 66.8326C90.9996 66.8679 90.9855 66.9018 90.9604 66.9267C90.9353 66.9517 90.9013 66.9657 90.8658 66.9657Z" fill="#CACACA"/>
<path d="M71.3812 11.9952H42.7014C42.6716 11.9946 42.6432 11.9823 42.6224 11.9611C42.6015 11.9399 42.5898 11.9114 42.5898 11.8818C42.5898 11.8521 42.6015 11.8236 42.6224 11.8024C42.6432 11.7812 42.6716 11.769 42.7014 11.7683H71.3812C71.411 11.769 71.4394 11.7812 71.4602 11.8024C71.4811 11.8236 71.4928 11.8521 71.4928 11.8818C71.4928 11.9114 71.4811 11.9399 71.4602 11.9611C71.4394 11.9823 71.411 11.9946 71.3812 11.9952V11.9952Z" fill="#CACACA"/>
<path d="M44.6537 11.189C45.0229 11.189 45.3221 10.8847 45.3221 10.5093C45.3221 10.1339 45.0229 9.82959 44.6537 9.82959C44.2846 9.82959 43.9854 10.1339 43.9854 10.5093C43.9854 10.8847 44.2846 11.189 44.6537 11.189Z" fill="#3F3D56"/>
<path d="M46.9624 11.189C47.3315 11.189 47.6308 10.8847 47.6308 10.5093C47.6308 10.1339 47.3315 9.82959 46.9624 9.82959C46.5932 9.82959 46.2939 10.1339 46.2939 10.5093C46.2939 10.8847 46.5932 11.189 46.9624 11.189Z" fill="#3F3D56"/>
<path d="M49.2719 11.189C49.6411 11.189 49.9403 10.8847 49.9403 10.5093C49.9403 10.1339 49.6411 9.82959 49.2719 9.82959C48.9028 9.82959 48.6035 10.1339 48.6035 10.5093C48.6035 10.8847 48.9028 11.189 49.2719 11.189Z" fill="#3F3D56"/>
<path d="M69.9905 9.99805H68.3503C68.3177 9.99869 68.2868 10.012 68.264 10.0351C68.2413 10.0582 68.2285 10.0892 68.2285 10.1216C68.2285 10.1539 68.2413 10.185 68.264 10.2081C68.2868 10.2312 68.3177 10.2445 68.3503 10.2451H69.9905C70.023 10.2445 70.0539 10.2312 70.0767 10.2081C70.0994 10.185 70.1122 10.1539 70.1122 10.1216C70.1122 10.0892 70.0994 10.0582 70.0767 10.0351C70.0539 10.012 70.023 9.99869 69.9905 9.99805V9.99805Z" fill="#3F3D56"/>
<path d="M69.9905 10.4618H68.3503C68.3177 10.4624 68.2868 10.4757 68.264 10.4988C68.2413 10.5219 68.2285 10.553 68.2285 10.5853C68.2285 10.6177 68.2413 10.6487 68.264 10.6718C68.2868 10.6949 68.3177 10.7082 68.3503 10.7089H69.9905C70.023 10.7082 70.0539 10.6949 70.0767 10.6718C70.0994 10.6487 70.1122 10.6177 70.1122 10.5853C70.1122 10.553 70.0994 10.5219 70.0767 10.4988C70.0539 10.4757 70.023 10.4624 69.9905 10.4618V10.4618Z" fill="#3F3D56"/>
<path d="M69.9905 10.9249H68.3503C68.3177 10.9256 68.2868 10.9389 68.264 10.962C68.2413 10.9851 68.2285 11.0161 68.2285 11.0485C68.2285 11.0808 68.2413 11.1119 68.264 11.135C68.2868 11.1581 68.3177 11.1714 68.3503 11.172H69.9905C70.023 11.1714 70.0539 11.1581 70.0767 11.135C70.0994 11.1119 70.1122 11.0808 70.1122 11.0485C70.1122 11.0161 70.0994 10.9851 70.0767 10.962C70.0539 10.9389 70.023 10.9256 69.9905 10.9249V10.9249Z" fill="#3F3D56"/>
<path d="M59.3572 18.1764H55.7735C55.5043 18.1764 55.2861 18.3935 55.2861 18.6612C55.2861 18.929 55.5043 19.1461 55.7735 19.1461H59.3572C59.6264 19.1461 59.8446 18.929 59.8446 18.6612C59.8446 18.3935 59.6264 18.1764 59.3572 18.1764Z" fill="#E61D2B"/>
<path d="M61.672 20.1157H53.4581C53.1889 20.1157 52.9707 20.3328 52.9707 20.6006C52.9707 20.8683 53.1889 21.0854 53.4581 21.0854H61.672C61.9411 21.0854 62.1594 20.8683 62.1594 20.6006C62.1594 20.3328 61.9411 20.1157 61.672 20.1157Z" fill="#E6E6E6"/>
<path d="M61.672 22.0551H53.4581C53.1889 22.0551 52.9707 22.2721 52.9707 22.5399C52.9707 22.8077 53.1889 23.0247 53.4581 23.0247H61.672C61.9411 23.0247 62.1594 22.8077 62.1594 22.5399C62.1594 22.2721 61.9411 22.0551 61.672 22.0551Z" fill="#E6E6E6"/>
<path d="M45.6337 29.4957C45.6344 29.8952 45.5628 30.2914 45.4225 30.6657H42.2717C42.1285 30.6654 41.9912 30.6087 41.89 30.508C41.7887 30.4072 41.7317 30.2707 41.7314 30.1282V26.186C41.9075 26.1577 42.0855 26.1435 42.2639 26.1436C42.7064 26.1435 43.1446 26.2302 43.5535 26.3987C43.9623 26.5671 44.3338 26.814 44.6468 27.1253C44.9597 27.4366 45.2079 27.8062 45.3772 28.2129C45.5466 28.6196 45.6337 29.0555 45.6337 29.4957Z" fill="#E6E6E6"/>
<path d="M39.4162 32.6125C39.369 33.9701 36.4665 37.633 34.9399 38.1581C34.6805 38.2475 34.5288 38.2967 34.5288 38.2967L33.9975 38.1369L27.5634 36.2005C26.4368 36.8597 23.0759 37.1949 20.3183 37.3626C18.1234 37.4955 16.3093 37.5223 16.3093 37.5223C15.6618 42.4211 14.3857 47.1072 12.2329 51.4965L9.64941 51.0495L12.0901 34.6998C12.1428 34.3467 12.2987 34.0169 12.5383 33.7512C12.7779 33.4855 13.0907 33.2956 13.4378 33.2053L30.995 28.6368C30.995 28.6368 31.9633 28.4625 34.0054 29.4425C37.3673 31.056 39.4499 31.6247 39.4162 32.6125Z" fill="#2F2E41"/>
<path d="M33.3797 63.4625L32.0677 64.1425L28.8066 59.4319L30.7432 58.4282L33.3797 63.4625Z" fill="#A0616A"/>
<path d="M34.1385 64.8001L30.1039 66.8912L30.0773 66.8405C29.8603 66.4262 29.8177 65.9431 29.9587 65.4975C30.0998 65.0519 30.413 64.6803 30.8294 64.4644L30.8295 64.4643L31.2752 63.5261L32.9415 63.3697L33.2937 63.1871L34.1385 64.8001Z" fill="#2F2E41"/>
<path d="M36.0624 32.3499C36.6512 33.5755 35.7786 38.1581 34.6688 39.3255L34.3743 39.5248L34.2746 39.5765C33.6089 41.8166 26.4646 48.3686 26.4646 48.3686C28.8778 51.4267 30.3818 55.1866 31.3414 59.3667L29.1976 60.3519L21.3429 48.6874C21.1372 48.3819 21.0293 48.0216 21.0333 47.6539C21.0374 47.2862 21.1532 46.9283 21.3656 46.6273L24.57 42.0868L29.7914 32.0258C33.5224 31.9113 35.6334 31.4584 36.0624 32.3499Z" fill="#2F2E41"/>
<path d="M39.2362 33.0893C27.9592 31.3834 26.9318 29.8492 26.8215 29.8765L26.7236 29.9007L28.3574 27.1536L28.9567 26.4495L28.4958 26.1217L28.6787 24.7604C28.8213 24.2089 28.9368 23.5593 28.8752 23.4724C28.7481 23.3324 28.4652 23.0779 28.4624 23.0754L28.426 23.0426L28.8507 22.0569L29.4195 14.1755L30.8859 11.2673L33.9126 9.48242L36.5804 9.51455L38.9249 11.6778C39.9202 12.1541 40.7298 12.9437 41.2281 13.9244C41.7263 14.905 41.8854 16.0217 41.6807 17.1014L40.4898 23.3586L40.0517 26.5838L40.7666 27.2948L40.3218 27.7373L40.0573 29.244L40.3282 30.9503C40.5399 32.5008 39.5985 32.5932 39.529 32.6125C39.5248 32.6137 39.3203 33.1463 39.3117 33.1463C39.29 33.1462 39.2882 33.0972 39.2362 33.0893Z" fill="#E61D2B"/>
<path d="M38.644 39.3104C38.7727 39.1853 38.8724 39.0336 38.9358 38.866C38.9993 38.6984 39.0251 38.519 39.0113 38.3405C38.9975 38.1619 38.9446 37.9886 38.8562 37.8326C38.7678 37.6766 38.6461 37.5418 38.4996 37.4377L39.7366 33.2623L37.5619 33.923L36.7206 37.7866C36.561 38.043 36.5016 38.3486 36.5534 38.6457C36.6053 38.9427 36.7648 39.2105 37.0019 39.3983C37.239 39.5862 37.5371 39.6809 37.8397 39.6647C38.1424 39.6485 38.4285 39.5224 38.644 39.3104V39.3104Z" fill="#A0616A"/>
<path d="M38.8444 36.4133L36.4937 35.3644L38.3793 27.5751L34.8678 19.0956C34.6942 18.6764 34.6155 18.2244 34.6373 17.7716C34.6591 17.3188 34.7809 16.8764 34.9939 16.4756C35.2069 16.0749 35.506 15.7258 35.87 15.4529C36.2339 15.1801 36.6538 14.9904 37.0997 14.8971V14.8971C37.9054 14.7296 38.7449 14.8869 39.4342 15.3344C40.1235 15.7819 40.6061 16.4831 40.7763 17.2842L42.9119 27.3929L38.8444 36.4133Z" fill="#E61D2B"/>
<path d="M29.5628 6.65897L30.4221 3.10414C30.4516 2.98255 30.5284 2.87758 30.6357 2.81225C30.7429 2.74693 30.8718 2.7266 30.9941 2.75571L31.7729 2.94199C31.8952 2.97137 32.0007 3.04778 32.0664 3.15446C32.132 3.26114 32.1525 3.38937 32.1232 3.51103L31.264 7.06586C31.2344 7.18745 31.1576 7.29242 31.0504 7.35774C30.9431 7.42307 30.8142 7.4434 30.6919 7.41429L29.9131 7.22801C29.7909 7.19863 29.6854 7.12222 29.6197 7.01554C29.554 6.90886 29.5336 6.78063 29.5628 6.65897V6.65897Z" fill="#3F3D56"/>
<path d="M31.0417 2.95877C30.9758 2.94308 30.9063 2.95405 30.8485 2.98925C30.7908 3.02445 30.7494 3.08101 30.7334 3.14653L29.8742 6.70136C29.8584 6.76692 29.8695 6.83603 29.9048 6.89351C29.9402 6.951 29.9971 6.99217 30.063 7.00801L30.8418 7.19429C30.9077 7.20998 30.9772 7.19902 31.035 7.16382C31.0927 7.12862 31.1341 7.07205 31.1501 7.00653L32.0093 3.4517C32.0251 3.38614 32.014 3.31704 31.9787 3.25955C31.9433 3.20207 31.8864 3.16089 31.8205 3.14505L31.0417 2.95877Z" fill="#E61D2B"/>
<path d="M34.6454 8.90075C36.752 8.90075 38.4598 7.20194 38.4598 5.10635C38.4598 3.01076 36.752 1.31195 34.6454 1.31195C32.5388 1.31195 30.8311 3.01076 30.8311 5.10635C30.8311 7.20194 32.5388 8.90075 34.6454 8.90075Z" fill="#A0616A"/>
<path d="M36.405 7.64345L36.5424 6.87492C36.6268 6.36526 36.5391 5.84213 36.2929 5.38734C36.0467 4.93254 35.656 4.57171 35.1818 4.36127L35.064 4.30458L35.1611 4.25297C35.1919 4.23655 35.2161 4.20989 35.2292 4.17764C35.2424 4.14538 35.2438 4.10954 35.2332 4.07636C35.2226 4.04317 35.2007 4.01472 35.1712 3.99594C35.1417 3.97717 35.1066 3.96925 35.0718 3.97356L34.9616 3.9872C34.8865 3.99635 34.8103 3.98369 34.7422 3.95074C34.6741 3.91779 34.6171 3.86596 34.5779 3.8015C34.5388 3.73703 34.5192 3.66269 34.5216 3.58742C34.524 3.51215 34.5482 3.43917 34.5913 3.37727C34.2105 3.53423 33.8042 3.62113 33.3923 3.63376C32.796 3.62929 32.278 3.34017 32.0725 2.89714C32.0224 2.787 31.9916 2.66917 31.9814 2.54872C31.3516 2.79561 31.012 3.53566 31.0085 3.54341L30.8223 3.95676L30.902 3.51078C30.9044 3.4972 31.1482 2.1465 31.5016 1.30851C31.8816 0.407501 33.4637 -0.0673926 35.8402 0.00773652C38.1615 0.0803013 38.6765 2.71316 38.7207 2.96791C39.3802 3.59911 39.1405 4.7942 38.9377 5.45335C38.6092 6.52082 37.961 7.583 37.6039 7.63892C37.5719 7.6449 37.5389 7.64132 37.5089 7.62865C37.479 7.61598 37.4535 7.59478 37.4357 7.56772C37.3999 7.51117 37.3525 7.46282 37.2965 7.42586C37.2406 7.38891 37.1774 7.36419 37.1111 7.35335C36.8225 7.31254 36.5246 7.54791 36.5217 7.55026L36.405 7.64345Z" fill="#2F2E41"/>
<path d="M31.1077 66.9657L0.13336 67C0.0979551 66.9999 0.0640363 66.9858 0.0390376 66.9609C0.014039 66.936 0 66.9022 0 66.867C0 66.8317 0.014039 66.798 0.0390376 66.773C0.0640363 66.7481 0.0979551 66.734 0.13336 66.7339L31.1077 66.6996C31.1431 66.6996 31.1772 66.7136 31.2022 66.7386C31.2273 66.7635 31.2414 66.7973 31.2414 66.8326C31.2414 66.8679 31.2273 66.9018 31.2022 66.9267C31.1772 66.9517 31.1431 66.9657 31.1077 66.9657Z" fill="#CACACA"/>
</g>
<defs>
<clipPath id="clip0_1_296">
<rect width="91" height="67" fill="white"/>
</clipPath>
</defs>
</svg>
