<svg width="50" height="50" viewBox="0 0 50 50" fill="none" xmlns="http://www.w3.org/2000/svg">
<path d="M6.25 3.125C5.4212 3.125 4.62634 3.45424 4.04029 4.04029C3.45424 4.62634 3.125 5.4212 3.125 6.25V31.25C3.125 32.0788 3.45424 32.8737 4.04029 33.4597C4.62634 34.0458 5.4212 34.375 6.25 34.375H36.2063C37.8637 34.3754 39.4532 35.0341 40.625 36.2063L46.875 42.4563V6.25C46.875 5.4212 46.5458 4.62634 45.9597 4.04029C45.3737 3.45424 44.5788 3.125 43.75 3.125H6.25ZM43.75 0C45.4076 0 46.9973 0.65848 48.1694 1.83058C49.3415 3.00269 50 4.5924 50 6.25V46.2281C49.9999 46.5373 49.9081 46.8395 49.7363 47.0965C49.5644 47.3535 49.3201 47.5537 49.0344 47.6718C48.7487 47.7899 48.4343 47.8206 48.1311 47.76C47.828 47.6993 47.5496 47.5501 47.3312 47.3312L38.4156 38.4156C37.8297 37.8295 37.035 37.5002 36.2063 37.5H6.25C4.5924 37.5 3.00269 36.8415 1.83058 35.6694C0.65848 34.4973 0 32.9076 0 31.25V6.25C0 4.5924 0.65848 3.00269 1.83058 1.83058C3.00269 0.65848 4.5924 0 6.25 0L43.75 0Z" fill="white"/>
<path d="M15.625 18.75C15.625 19.5788 15.2958 20.3737 14.7097 20.9597C14.1237 21.5458 13.3288 21.875 12.5 21.875C11.6712 21.875 10.8763 21.5458 10.2903 20.9597C9.70424 20.3737 9.375 19.5788 9.375 18.75C9.375 17.9212 9.70424 17.1263 10.2903 16.5403C10.8763 15.9542 11.6712 15.625 12.5 15.625C13.3288 15.625 14.1237 15.9542 14.7097 16.5403C15.2958 17.1263 15.625 17.9212 15.625 18.75V18.75ZM28.125 18.75C28.125 19.5788 27.7958 20.3737 27.2097 20.9597C26.6237 21.5458 25.8288 21.875 25 21.875C24.1712 21.875 23.3763 21.5458 22.7903 20.9597C22.2042 20.3737 21.875 19.5788 21.875 18.75C21.875 17.9212 22.2042 17.1263 22.7903 16.5403C23.3763 15.9542 24.1712 15.625 25 15.625C25.8288 15.625 26.6237 15.9542 27.2097 16.5403C27.7958 17.1263 28.125 17.9212 28.125 18.75ZM40.625 18.75C40.625 19.5788 40.2958 20.3737 39.7097 20.9597C39.1237 21.5458 38.3288 21.875 37.5 21.875C36.6712 21.875 35.8763 21.5458 35.2903 20.9597C34.7042 20.3737 34.375 19.5788 34.375 18.75C34.375 17.9212 34.7042 17.1263 35.2903 16.5403C35.8763 15.9542 36.6712 15.625 37.5 15.625C38.3288 15.625 39.1237 15.9542 39.7097 16.5403C40.2958 17.1263 40.625 17.9212 40.625 18.75Z" fill="white"/>
</svg>
