<svg width="472" height="236" viewBox="0 0 472 236" fill="none" xmlns="http://www.w3.org/2000/svg">
<g clip-path="url(#clip0_1_3056)">
<path d="M155.439 236C141.197 236 126.976 235.746 112.777 235.237C92.4871 234.51 71.5067 233.759 52.0061 222.971C38.3646 215.426 26.283 203.319 17.0677 187.96C10.9083 177.55 6.39199 166.256 3.67735 154.475C-1.38649 133.027 -1.21401 110.679 4.18029 89.3111C6.07066 81.9848 8.67666 74.8611 11.9609 68.0421C26.1818 38.6694 52.1198 18.9523 83.1243 13.9469C83.3803 13.9138 83.6392 13.9082 83.8965 13.9304C84.0359 13.9379 84.1749 13.9459 84.3166 13.94L84.499 13.8821C84.9667 13.72 85.447 13.5971 85.9351 13.5145C133.752 6.41433 184.302 20.7805 232.115 55.0589C269.085 81.5664 318.08 95.8403 381.9 98.6962L382.806 98.7435C400.572 99.7615 417.757 107.067 432.505 119.872C447.062 132.51 457.992 149.371 464.113 168.634C464.866 170.982 465.555 173.427 466.163 175.899C466.729 178.197 466.689 180.602 466.047 182.88C465.405 185.157 464.183 187.231 462.5 188.898V188.902L462.341 189.065C461.958 189.445 461.556 189.809 461.144 190.148L460.66 190.545C456.582 193.896 453.36 196.544 449.505 198.6C446.934 199.962 444.199 200.991 441.367 201.664C425.814 205.446 410.021 208.952 394.425 212.086C364.136 218.178 333.049 223.203 302.028 227.021C253.395 233.002 204.441 236.001 155.439 236ZM83.5339 14.9708C83.4386 14.9699 83.3435 14.9763 83.2492 14.99C52.5346 19.9487 26.8421 39.4722 12.7622 68.5542C9.51038 75.3055 6.93017 82.3586 5.05859 89.6123C-0.286549 110.791 -0.456884 132.94 4.56191 154.198C7.24997 165.866 11.7225 177.052 17.8224 187.363C26.9476 202.571 38.9056 214.556 52.4041 222.022C71.7296 232.713 92.6111 233.461 112.805 234.184C175.965 236.435 239.205 233.69 301.93 225.974C332.931 222.158 363.998 217.137 394.267 211.049C409.852 207.917 425.635 204.414 441.177 200.634C443.941 199.978 446.609 198.973 449.119 197.644C452.897 195.63 456.087 193.008 460.126 189.689L460.61 189.292C460.964 189 461.312 188.689 461.644 188.365L461.739 188.265C465.059 184.928 466.35 180.525 465.281 176.186V176.185C464.68 173.739 463.997 171.321 463.252 168.996C450.748 129.646 418.402 101.837 382.762 99.7954L381.861 99.7481C352.709 98.4433 327.198 94.829 303.875 88.6977C276.033 81.3788 251.726 70.3613 231.63 55.9519C183.998 21.8049 133.66 7.49217 86.0519 14.5587C85.6072 14.6352 85.1696 14.7484 84.7437 14.897L84.4148 14.9887C84.2281 14.9971 84.0409 14.9948 83.8544 14.9821C83.7445 14.9764 83.638 14.9708 83.5339 14.9708H83.5339Z" fill="#F0F0F0"/>
<path d="M147.433 76.8917C146.115 75.63 144.766 68.5939 143.083 67.8797C144.341 70.6533 143.428 71.3877 143.421 74.4317C143.437 76.1602 143.234 77.8838 142.819 79.5619H114.304V57.3656C114.304 55.3712 114.697 53.3964 115.463 51.5538C116.228 49.7112 117.349 48.037 118.763 46.6267C120.177 45.2165 121.856 44.0978 123.703 43.3346C125.55 42.5714 127.53 42.1787 129.53 42.1787C130.293 42.1936 131.051 42.3043 131.787 42.5083C134.238 43.1683 136.472 44.4595 138.264 46.2525C140.057 48.0454 141.345 50.2771 142 52.7235C144.174 60.6485 147.631 73.8403 147.433 76.8917Z" fill="#2F2E41"/>
<path d="M115.977 104.197L115.991 86.8965L105.795 87.8053L109.393 98.7168L107.709 126.143C106.892 126.326 106.146 126.742 105.563 127.34C104.979 127.939 104.582 128.693 104.421 129.513C104.259 130.332 104.341 131.18 104.654 131.954C104.968 132.729 105.501 133.395 106.188 133.872C106.875 134.349 107.686 134.617 108.523 134.642C109.36 134.667 110.186 134.449 110.9 134.014C111.615 133.579 112.187 132.947 112.548 132.193C112.908 131.439 113.04 130.597 112.929 129.77L115.977 104.197Z" fill="#FFB6B6"/>
<path d="M136.043 227.828L140.162 227.828L142.122 211.98H136.042L136.043 227.828Z" fill="#FFB6B6"/>
<path d="M134.647 225.801L141.159 225.414V228.196L147.35 232.461C147.656 232.672 147.886 232.974 148.007 233.325C148.128 233.675 148.134 234.055 148.023 234.409C147.913 234.762 147.692 235.072 147.392 235.291C147.093 235.511 146.731 235.63 146.36 235.63H138.607L137.271 232.877L136.749 235.63H133.826L134.647 225.801Z" fill="#2F2E41"/>
<path d="M112.224 227.828L116.344 227.828L118.303 211.98H112.224L112.224 227.828Z" fill="#FFB6B6"/>
<path d="M110.83 225.801L117.342 225.414V228.196L123.532 232.461C123.838 232.672 124.069 232.974 124.19 233.325C124.311 233.675 124.317 234.055 124.206 234.409C124.095 234.762 123.874 235.072 123.575 235.291C123.276 235.511 122.914 235.63 122.542 235.63H114.79L113.454 232.877L112.932 235.63H110.009L110.83 225.801Z" fill="#2F2E41"/>
<path d="M132.375 68.2134L123.841 68.3803L117.818 74.7221L112.988 75.4285C110.804 75.7481 108.796 76.8058 107.299 78.4249C105.803 80.0441 104.909 82.1265 104.767 84.3241L105.603 88.9076H110.623L113.527 105.914C112.398 108.783 112.321 111.049 114.639 111.938L121.833 125.456L143.083 115.944C144.161 114.096 144.506 112.24 143.405 110.435L144.924 84.4016H150.032C150.032 79.5326 148.38 75.4278 143.529 74.886C141.603 74.6781 139.667 74.5677 137.729 74.5552L132.375 68.2134Z" fill="#E6E6E6"/>
<path d="M143.084 115.944C143.084 115.944 122.336 119.615 114.639 111.938C114.639 111.938 113.857 113.262 112.68 115.456C112.341 116.087 111.687 116.514 111.292 117.279C110.934 117.974 110.01 118.828 109.619 119.616C109.305 120.249 109.809 121.078 109.482 121.762C105.54 130.009 100.935 141.641 101.922 149.322C102.559 154.275 103.874 165.801 105.259 178.18C105.367 179.147 104.491 180.389 104.6 181.364C104.702 182.284 105.79 182.935 105.893 183.856C105.961 184.468 105.201 185.092 105.269 185.703C105.343 186.374 106.245 187.031 106.32 187.699C108.217 204.792 109.954 220.75 109.954 220.75H119.659L121.49 184.303L119.993 171.017L123.507 144.148L128.359 169.682L128.983 184.053L134.111 221.418H143.084V185.246L143.753 183.367L143.084 180.957L143.753 178.36L143.084 175.532V115.944Z" fill="#2F2E41"/>
<path d="M134.993 63.2776C133.672 65.029 131.791 66.2791 129.662 66.8222C127.532 67.3652 125.281 67.1687 123.279 66.2651C121.276 65.3615 119.642 63.8046 118.645 61.8509C117.648 59.8971 117.348 57.663 117.794 55.5165C118.24 53.3699 119.406 51.4389 121.1 50.0415C122.793 48.6441 124.913 47.8636 127.111 47.8285C129.308 47.7934 131.452 48.5059 133.19 49.8485C134.927 51.1912 136.154 53.084 136.669 55.2152C136.697 55.3308 136.721 55.4458 136.743 55.5652C137.015 56.901 137 58.2792 136.698 59.6087C136.397 60.9382 135.815 62.1887 134.993 63.2776Z" fill="#FFB6B6"/>
<path d="M132.977 57.7728C132.771 56.7456 132.252 55.8069 131.491 55.0858C131.566 56.0702 131.429 57.0592 131.089 57.9864C128.545 58.2111 125.99 57.7062 123.724 56.5311C122.017 55.3763 119.845 55.4764 117.315 56.5311C117.315 55.3038 117.558 54.0884 118.028 52.9544C118.499 51.8205 119.189 50.7902 120.059 49.9223C120.93 49.0544 121.963 48.366 123.099 47.8964C124.236 47.4268 125.455 47.1851 126.685 47.1853H128.359C130.844 47.1858 133.227 48.1705 134.984 49.9231C136.741 51.6757 137.728 54.0526 137.729 56.5311C136.184 57.0836 134.594 57.4991 132.977 57.7728Z" fill="#2F2E41"/>
<path d="M59.7751 176.889C74.6419 176.889 86.6938 164.868 86.6938 150.039C86.6938 135.211 74.6419 123.19 59.7751 123.19C44.9083 123.19 32.8564 135.211 32.8564 150.039C32.8564 164.868 44.9083 176.889 59.7751 176.889Z" fill="#F0F0F0"/>
<path d="M231.315 53.6983C246.182 53.6983 258.234 41.6775 258.234 26.8492C258.234 12.0208 246.182 0 231.315 0C216.448 0 204.396 12.0208 204.396 26.8492C204.396 41.6775 216.448 53.6983 231.315 53.6983Z" fill="#F0F0F0"/>
<path d="M445.082 181.1C459.949 181.1 472 169.079 472 154.251C472 139.423 459.949 127.402 445.082 127.402C430.215 127.402 418.163 139.423 418.163 154.251C418.163 169.079 430.215 181.1 445.082 181.1Z" fill="#F0F0F0"/>
<path d="M279.874 29.7772V90.6595C279.874 91.9241 279.374 93.1377 278.482 94.0366C277.591 94.9356 276.379 95.4472 275.111 95.4604C275.094 95.4622 275.076 95.4629 275.059 95.4626H267.954C262.27 95.4626 256.818 93.2103 252.799 89.2013C248.78 85.1922 246.521 79.7548 246.521 74.0851V29.7772C246.521 28.5033 247.029 27.2816 247.932 26.3809C248.835 25.4802 250.06 24.9741 251.337 24.9741H254.216C252.882 28.8544 270.982 30.4881 271.976 24.9741H275.059C276.336 24.9741 277.561 25.4802 278.464 26.3809C279.367 27.2817 279.874 28.5033 279.874 29.7772Z" fill="#E61D2B"/>
<path d="M258.792 20.4216C258.792 20.2547 258.859 20.0947 258.977 19.9767C259.095 19.8587 259.256 19.7923 259.423 19.7921H263.714C263.881 19.7926 264.042 19.8591 264.16 19.9771C264.277 20.0951 264.344 20.2549 264.344 20.4216C264.344 20.5882 264.277 20.748 264.16 20.866C264.042 20.984 263.881 21.0505 263.714 21.051H259.423C259.256 21.0508 259.095 20.9845 258.977 20.8665C258.859 20.7485 258.792 20.5884 258.792 20.4216Z" fill="#3F3D56"/>
<path d="M276.534 103.185H249.396C247.29 103.183 245.271 102.347 243.783 100.862C242.294 99.3775 241.456 97.3641 241.454 95.2641V52.7048C241.305 52.5981 241.183 52.4575 241.1 52.2946C241.016 52.1318 240.973 51.9514 240.973 51.7684V47.4881C240.973 47.3052 241.016 47.1248 241.1 46.962C241.184 46.7992 241.305 46.6586 241.454 46.5519V45.4031C241.305 45.2964 241.184 45.1559 241.1 44.993C241.016 44.8302 240.973 44.6499 240.973 44.4669V40.1864C240.973 40.0034 241.016 39.8231 241.1 39.6603C241.184 39.4974 241.305 39.3569 241.454 39.2502V37.1739C241.27 37.0754 241.116 36.9288 241.009 36.7498C240.902 36.5709 240.846 36.3663 240.847 36.158V31.8778C240.846 31.6694 240.902 31.4648 241.009 31.2859C241.116 31.1069 241.27 30.9602 241.454 30.8616V25.1724C241.456 23.0723 242.294 21.059 243.783 19.574C245.272 18.0891 247.29 17.2538 249.396 17.2515H276.534C278.639 17.2538 280.658 18.0891 282.147 19.5741C283.635 21.059 284.473 23.0724 284.475 25.1724V37.5737C284.618 37.6629 284.736 37.7869 284.818 37.9341C284.9 38.0813 284.943 38.2467 284.943 38.415V46.5766C284.943 46.7449 284.9 46.9104 284.818 47.0576C284.736 47.2048 284.618 47.3289 284.475 47.4182V95.2641C284.473 97.3641 283.635 99.3775 282.147 100.862C280.658 102.347 278.639 103.183 276.534 103.185ZM249.396 18.3044C247.57 18.3064 245.82 19.0307 244.529 20.3182C243.238 21.6058 242.512 23.3515 242.509 25.1724V31.7572L242.002 31.7768C241.975 31.7777 241.95 31.7887 241.932 31.8075C241.913 31.8263 241.903 31.8515 241.902 31.8778V36.158C241.903 36.1843 241.913 36.2094 241.932 36.2282C241.95 36.247 241.975 36.258 242.002 36.2591L242.509 36.2783V39.9895L242.108 40.0882C242.086 40.0935 242.066 40.1061 242.052 40.1238C242.037 40.1416 242.029 40.1636 242.029 40.1864V44.4669C242.029 44.4897 242.037 44.5117 242.052 44.5295C242.066 44.5472 242.086 44.5597 242.108 44.5651L242.509 44.6638V47.2912L242.108 47.3899C242.086 47.3952 242.066 47.4078 242.052 47.4255C242.037 47.4433 242.029 47.4653 242.029 47.4881V51.7684C242.029 51.7912 242.037 51.8133 242.051 51.8311C242.066 51.8489 242.086 51.8614 242.108 51.8668L242.509 51.9655V95.2641C242.512 97.085 243.238 98.8307 244.529 100.118C245.82 101.406 247.57 102.13 249.396 102.132H276.534C278.359 102.13 280.11 101.406 281.401 100.118C282.691 98.8307 283.418 97.085 283.42 95.2641V46.5167H283.887V38.4752H283.42V25.1724C283.418 23.3515 282.691 21.6058 281.401 20.3183C280.11 19.0307 278.359 18.3064 276.534 18.3044L249.396 18.3044Z" fill="#3F3D56"/>
<path d="M266.113 21.051C266.461 21.051 266.744 20.7692 266.744 20.4216C266.744 20.0739 266.461 19.7921 266.113 19.7921C265.764 19.7921 265.481 20.0739 265.481 20.4216C265.481 20.7692 265.764 21.051 266.113 21.051Z" fill="#3F3D56"/>
<path d="M128.829 142.355H58.2141C57.2113 142.352 56.2503 141.954 55.5411 141.247C54.832 140.539 54.4324 139.581 54.4297 138.581V104.262C54.4323 103.261 54.8317 102.303 55.5408 101.596C56.2498 100.888 57.2108 100.49 58.2136 100.487H128.829C129.832 100.49 130.793 100.888 131.502 101.595C132.211 102.302 132.61 103.261 132.613 104.261V138.58C132.611 139.58 132.211 140.539 131.502 141.246C130.793 141.953 129.832 142.352 128.829 142.355Z" fill="white"/>
<path d="M128.829 142.355H58.2141C57.2113 142.352 56.2503 141.954 55.5411 141.247C54.832 140.539 54.4324 139.581 54.4297 138.581V104.262C54.4323 103.261 54.8317 102.303 55.5408 101.596C56.2498 100.888 57.2108 100.49 58.2136 100.487H128.829C129.832 100.49 130.793 100.888 131.502 101.595C132.211 102.302 132.61 103.261 132.613 104.261V138.58C132.611 139.58 132.211 140.539 131.502 141.246C130.793 141.953 129.832 142.352 128.829 142.355ZM58.2141 101.54C57.4909 101.542 56.798 101.83 56.2867 102.34C55.7754 102.85 55.4873 103.541 55.4853 104.262V138.58C55.4874 139.301 55.7756 139.993 56.2871 140.503C56.7985 141.013 57.4914 141.3 58.2146 141.302H128.828C129.551 141.3 130.244 141.012 130.756 140.502C131.267 139.992 131.555 139.301 131.557 138.58V104.262C131.555 103.54 131.267 102.849 130.756 102.339C130.244 101.829 129.551 101.542 128.828 101.54L58.2141 101.54Z" fill="#3F3D56"/>
<path d="M97.3065 137.283C83.3796 137.283 68.8577 137.15 63.4395 137.064C62.7266 137.049 62.0477 136.757 61.5478 136.25C61.0478 135.743 60.7664 135.061 60.7637 134.35V105.942C60.7639 105.687 60.8653 105.443 61.0457 105.263C61.226 105.082 61.4706 104.981 61.7259 104.98H125.315C125.57 104.98 125.815 105.081 125.996 105.261C126.177 105.441 126.279 105.685 126.28 105.939V125.214C126.268 128.36 125.02 131.376 122.804 133.616C120.588 135.855 117.58 137.139 114.426 137.192C109.377 137.257 103.397 137.283 97.3065 137.283Z" fill="#E61D2B"/>
<path d="M121.541 123.443H64.0827C63.6016 123.442 63.1325 123.293 62.7393 123.016C62.3461 122.74 62.0477 122.349 61.8848 121.897L55.3814 103.7C55.2561 103.349 55.217 102.973 55.2675 102.604C55.318 102.235 55.4566 101.883 55.6716 101.578C55.8866 101.274 56.1718 101.025 56.5031 100.853C56.8345 100.681 57.2024 100.591 57.5759 100.59L129.397 100.49C129.739 100.49 130.076 100.564 130.385 100.708C130.695 100.852 130.969 101.062 131.188 101.323C131.408 101.584 131.567 101.889 131.655 102.218C131.743 102.547 131.758 102.892 131.698 103.227L131.754 103.25L131.547 103.73L131.545 103.735L123.684 122.032C123.504 122.451 123.206 122.808 122.825 123.059C122.444 123.31 121.997 123.443 121.541 123.443ZM129.401 101.543L57.578 101.643C57.3734 101.643 57.1718 101.693 56.9903 101.787C56.8087 101.881 56.6525 102.017 56.5347 102.184C56.4169 102.351 56.341 102.544 56.3133 102.746C56.2857 102.948 56.307 103.154 56.3757 103.346L62.8788 121.543C62.9682 121.791 63.1318 122.005 63.3473 122.156C63.5628 122.308 63.8198 122.389 64.0834 122.39H121.541C121.79 122.39 122.035 122.317 122.243 122.18C122.452 122.042 122.615 121.847 122.713 121.618L130.575 103.32L130.962 103.485L130.575 103.32C130.659 103.126 130.692 102.915 130.674 102.705C130.655 102.495 130.584 102.292 130.468 102.116C130.351 101.94 130.193 101.796 130.006 101.696C129.82 101.596 129.612 101.543 129.401 101.543Z" fill="#3F3D56"/>
<path d="M93.4151 127.404C95.8999 127.404 97.9143 125.395 97.9143 122.917C97.9143 120.438 95.8999 118.429 93.4151 118.429C90.9303 118.429 88.916 120.438 88.916 122.917C88.916 125.395 90.9303 127.404 93.4151 127.404Z" fill="white"/>
<path d="M263.372 88.4464C265.857 88.4464 267.871 86.4373 267.871 83.9589C267.871 81.4806 265.857 79.4714 263.372 79.4714C260.887 79.4714 258.873 81.4806 258.873 83.9589C258.873 86.4373 260.887 88.4464 263.372 88.4464Z" fill="white"/>
<path d="M433.538 149.05L421.52 137.215C420.935 136.634 420.241 136.175 419.477 135.862C418.714 135.549 417.896 135.39 417.071 135.393H417.028C416.197 135.396 415.374 135.563 414.607 135.884C413.841 136.206 413.146 136.676 412.563 137.268C409.876 139.98 408.347 143.626 408.299 147.439C408.251 151.253 409.686 154.936 412.304 157.715C412.431 157.852 412.563 157.984 412.695 158.115C413.426 158.84 414.233 159.484 415.102 160.037C417.478 161.568 420.248 162.378 423.077 162.369H423.167C425.108 162.362 427.029 161.972 428.819 161.22C430.608 160.468 432.23 159.37 433.591 157.989C434.771 156.795 435.427 155.184 435.417 153.508C435.408 151.833 434.732 150.229 433.538 149.05ZM432.842 157.247C430.61 159.489 427.672 160.895 424.523 161.229C421.373 161.563 418.204 160.803 415.55 159.079C414.791 158.578 414.082 158.005 413.434 157.368C410.844 154.817 409.377 151.344 409.354 147.714C409.331 144.084 410.755 140.593 413.312 138.01C413.799 137.516 414.378 137.123 415.018 136.855C415.658 136.586 416.345 136.447 417.039 136.446H417.071C417.758 136.444 418.439 136.577 419.074 136.837C419.71 137.097 420.288 137.48 420.776 137.963L432.794 149.803C433.789 150.784 434.353 152.119 434.362 153.515C434.371 154.91 433.824 156.253 432.842 157.247Z" fill="#3F3D56"/>
<path d="M394.104 110.208L382.086 98.3679C380.903 97.1973 379.303 96.5422 377.636 96.5464H377.599C376.767 96.5497 375.943 96.7175 375.176 97.0401C374.408 97.3627 373.713 97.8337 373.129 98.4258C370.907 100.676 369.467 103.577 369.018 106.704C368.57 109.83 369.138 113.017 370.638 115.799L370.643 115.804C371.262 116.942 372.03 117.992 372.928 118.926C373.029 119.042 373.145 119.158 373.261 119.273C376.021 122.006 379.754 123.536 383.643 123.527H383.738C385.68 123.519 387.601 123.127 389.39 122.375C391.179 121.622 392.801 120.523 394.162 119.142C394.747 118.551 395.209 117.852 395.522 117.083C395.836 116.315 395.994 115.492 395.989 114.663C395.983 113.833 395.814 113.013 395.491 112.248C395.167 111.484 394.696 110.791 394.104 110.208V110.208ZM393.408 118.405C392.144 119.687 390.639 120.706 388.978 121.405C387.318 122.103 385.535 122.467 383.733 122.474H383.643C380.937 122.473 378.291 121.674 376.038 120.177C373.786 118.68 372.028 116.553 370.985 114.062C369.942 111.571 369.661 108.828 370.176 106.178C370.692 103.528 371.982 101.089 373.884 99.1682C374.868 98.1759 376.206 97.6136 377.605 97.6047C379.005 97.5958 380.35 98.1411 381.347 99.1208L393.365 110.955C394.36 111.939 394.922 113.275 394.93 114.671C394.938 116.068 394.391 117.41 393.408 118.405L393.408 118.405Z" fill="#3F3D56"/>
<path d="M434.306 152.77L421.056 139.718C420.188 138.864 419.015 138.388 417.795 138.396C416.575 138.404 415.408 138.893 414.55 139.758C413.476 140.84 412.627 142.122 412.051 143.531C411.474 144.941 411.182 146.449 411.191 147.971C411.199 149.493 411.509 150.999 412.101 152.402C412.693 153.804 413.557 155.077 414.643 156.146C415.728 157.216 417.015 158.061 418.428 158.635C419.842 159.208 421.355 159.498 422.881 159.488C424.407 159.477 425.916 159.167 427.322 158.575C428.727 157.982 430.002 157.12 431.073 156.035L434.306 152.77Z" fill="#E61D2B"/>
<path d="M394.876 113.926L381.626 100.874C380.757 100.02 379.584 99.5444 378.364 99.552C377.144 99.5595 375.977 100.049 375.119 100.914C374.046 101.996 373.196 103.278 372.62 104.687C372.044 106.097 371.751 107.605 371.76 109.127C371.769 110.649 372.078 112.155 372.67 113.558C373.263 114.96 374.126 116.233 375.212 117.302C376.298 118.372 377.584 119.217 378.998 119.791C380.411 120.364 381.924 120.654 383.45 120.644C384.976 120.633 386.485 120.323 387.891 119.731C389.297 119.138 390.571 118.276 391.642 117.191L394.876 113.926Z" fill="#E61D2B"/>
<path d="M419.746 160.9L419.429 161.732C417.94 161.169 416.498 160.604 415.101 160.037C390.357 149.966 378.544 138.178 370.643 115.804L370.638 115.799C370.263 114.746 369.899 113.668 369.545 112.566L370.379 112.298C370.658 113.358 371.065 114.38 371.593 115.341C372.026 116.568 372.471 117.763 372.928 118.926C380.355 137.81 391.307 148.602 412.303 157.715C413.359 158.173 414.441 158.628 415.549 159.079C416.837 159.915 418.255 160.531 419.746 160.9Z" fill="#3F3D56"/>
<path d="M381.866 122.569L381.124 123.318L408.538 150.324L409.28 149.575L381.866 122.569Z" fill="#3F3D56"/>
<path d="M149.776 100.192L149.79 82.8912L139.593 83.8L143.192 94.7115L130.13 114.461C129.313 114.644 128.567 115.06 127.983 115.658C127.4 116.256 127.003 117.011 126.842 117.83C126.68 118.65 126.762 119.498 127.075 120.272C127.389 121.046 127.922 121.713 128.609 122.19C129.296 122.667 130.107 122.935 130.944 122.96C131.781 122.985 132.607 122.767 133.321 122.332C134.036 121.897 134.608 121.264 134.968 120.511C135.329 119.757 135.461 118.915 135.35 118.088L149.776 100.192Z" fill="#FFB6B6"/>
</g>
<defs>
<clipPath id="clip0_1_3056">
<rect width="472" height="236" fill="white"/>
</clipPath>
</defs>
</svg>
