<svg width="119" height="67" viewBox="0 0 119 67" fill="none" xmlns="http://www.w3.org/2000/svg">
<g clip-path="url(#clip0_1_424)">
<path d="M8.95304 66.9665L8.8278 66.7351C10.507 65.8274 12.5968 64.6979 13.6884 62.8442C14.7644 61.0169 14.7885 58.5355 13.7514 56.3684C12.8687 54.524 11.2474 52.8717 9.06262 51.5898C8.63168 51.337 8.17931 51.0974 7.74182 50.8656C6.68435 50.3055 5.59088 49.7263 4.68925 48.9045C3.44743 47.7727 2.50783 45.8733 3.20814 44.1815C3.43846 43.6415 3.81565 43.1769 4.2969 42.8403C4.77814 42.5038 5.34415 42.3089 5.93065 42.2777L5.94551 42.5405C5.40819 42.569 4.88963 42.7474 4.44866 43.0556C4.00769 43.3637 3.66197 43.7893 3.45074 44.2839C2.79997 45.856 3.69283 47.6401 4.86669 48.7101C5.74367 49.5093 6.82216 50.0806 7.86513 50.6331C8.3051 50.8661 8.76007 51.1072 9.19596 51.3629C11.4262 52.6714 13.0836 54.3629 13.9889 56.2548C15.0634 58.4998 15.0352 61.0759 13.9153 62.9777C12.7866 64.8945 10.661 66.0434 8.95304 66.9665Z" fill="#F1F1F1"/>
<path d="M7.59906 43.6648C8.87161 43.6648 9.90321 43.164 9.90321 42.5463C9.90321 41.9285 8.87161 41.4277 7.59906 41.4277C6.32652 41.4277 5.29492 41.9285 5.29492 42.5463C5.29492 43.164 6.32652 43.6648 7.59906 43.6648Z" fill="#F1F1F1"/>
<path d="M9.44281 51.0341C10.7154 51.0341 11.747 50.5333 11.747 49.9155C11.747 49.2978 10.7154 48.797 9.44281 48.797C8.17027 48.797 7.13867 49.2978 7.13867 49.9155C7.13867 50.5333 8.17027 51.0341 9.44281 51.0341Z" fill="#F1F1F1"/>
<path d="M5.22992 52.2184C6.50247 52.2184 7.53407 51.7176 7.53407 51.0999C7.53407 50.4821 6.50247 49.9813 5.22992 49.9813C3.95738 49.9813 2.92578 50.4821 2.92578 51.0999C2.92578 51.7176 3.95738 52.2184 5.22992 52.2184Z" fill="#F1F1F1"/>
<path d="M11.8129 58.4033C13.0855 58.4033 14.1171 57.9025 14.1171 57.2847C14.1171 56.667 13.0855 56.1662 11.8129 56.1662C10.5404 56.1662 9.50879 56.667 9.50879 57.2847C9.50879 57.9025 10.5404 58.4033 11.8129 58.4033Z" fill="#F1F1F1"/>
<path d="M16.4213 58.4033C17.6939 58.4033 18.7255 57.9025 18.7255 57.2847C18.7255 56.667 17.6939 56.1662 16.4213 56.1662C15.1488 56.1662 14.1172 56.667 14.1172 57.2847C14.1172 57.9025 15.1488 58.4033 16.4213 58.4033Z" fill="#F1F1F1"/>
<path d="M119 2.0304H44.8994V37.1732H119V2.0304Z" fill="#E6E6E6"/>
<path d="M116.88 5.04395H47.0176V34.3647H116.88V5.04395Z" fill="white"/>
<path d="M118.969 0H44.8682V3.14629H118.969V0Z" fill="#E61D2B"/>
<path d="M47.2075 2.03844C47.5297 2.03844 47.791 1.77735 47.791 1.45528C47.791 1.13322 47.5297 0.872131 47.2075 0.872131C46.8853 0.872131 46.624 1.13322 46.624 1.45528C46.624 1.77735 46.8853 2.03844 47.2075 2.03844Z" fill="white"/>
<path d="M49.4214 2.03844C49.7436 2.03844 50.0048 1.77735 50.0048 1.45528C50.0048 1.13322 49.7436 0.872131 49.4214 0.872131C49.0991 0.872131 48.8379 1.13322 48.8379 1.45528C48.8379 1.77735 49.0991 2.03844 49.4214 2.03844Z" fill="white"/>
<path d="M51.6362 2.0385C51.9585 2.0385 52.2197 1.77741 52.2197 1.45535C52.2197 1.13328 51.9585 0.872192 51.6362 0.872192C51.314 0.872192 51.0527 1.13328 51.0527 1.45535C51.0527 1.77741 51.314 2.0385 51.6362 2.0385Z" fill="white"/>
<path d="M78.2661 12.0023C78.1911 12.0023 78.1192 12.0321 78.0662 12.0851C78.0132 12.138 77.9834 12.2099 77.9834 12.2848C77.9834 12.3598 78.0132 12.4316 78.0662 12.4846C78.1192 12.5376 78.1911 12.5673 78.2661 12.5673H93.7767C93.8517 12.5673 93.9236 12.5376 93.9766 12.4846C94.0296 12.4316 94.0594 12.3598 94.0594 12.2848C94.0594 12.2099 94.0296 12.138 93.9766 12.0851C93.9236 12.0321 93.8517 12.0023 93.7767 12.0023H78.2661Z" fill="#E6E6E6"/>
<path d="M78.2664 13.6976C78.1916 13.6978 78.1198 13.7276 78.067 13.7806C78.0141 13.8336 77.9844 13.9053 77.9844 13.9801C77.9844 14.055 78.0141 14.1267 78.067 14.1797C78.1198 14.2327 78.1916 14.2625 78.2664 14.2627H86.1849C86.2598 14.2625 86.3316 14.2327 86.3844 14.1797C86.4373 14.1267 86.467 14.055 86.467 13.9801C86.467 13.9053 86.4373 13.8336 86.3844 13.7806C86.3316 13.7276 86.2598 13.6978 86.1849 13.6976H78.2664Z" fill="#E6E6E6"/>
<path d="M77.8764 21.9028C77.8015 21.9028 77.7296 21.9326 77.6765 21.9856C77.6235 22.0386 77.5938 22.1104 77.5938 22.1853C77.5938 22.2603 77.6235 22.3321 77.6765 22.3851C77.7296 22.4381 77.8015 22.4679 77.8764 22.4679H106.959C107.034 22.4679 107.106 22.4381 107.159 22.3851C107.212 22.3321 107.242 22.2603 107.242 22.1853C107.242 22.1104 107.212 22.0386 107.159 21.9856C107.106 21.9326 107.034 21.9028 106.959 21.9028H77.8764Z" fill="#E6E6E6"/>
<path d="M77.8758 23.5981C77.8009 23.5982 77.7292 23.6281 77.6763 23.681C77.6235 23.734 77.5937 23.8058 77.5938 23.8806C77.5937 23.9554 77.6235 24.0272 77.6763 24.0802C77.7292 24.1331 77.8009 24.163 77.8758 24.1631H99.3663C99.4411 24.163 99.5129 24.1331 99.5657 24.0802C99.6186 24.0272 99.6483 23.9554 99.6483 23.8806C99.6483 23.8058 99.6186 23.734 99.5657 23.681C99.5129 23.6281 99.4411 23.5982 99.3663 23.5981H77.8758Z" fill="#E6E6E6"/>
<path d="M77.8758 25.255C77.8009 25.2552 77.7292 25.285 77.6763 25.338C77.6235 25.3909 77.5937 25.4627 77.5938 25.5375C77.5937 25.6123 77.6235 25.6841 77.6763 25.7371C77.7292 25.79 77.8009 25.8199 77.8758 25.82H106.958C107.033 25.8199 107.105 25.79 107.158 25.7371C107.211 25.6841 107.24 25.6123 107.24 25.5375C107.24 25.4627 107.211 25.3909 107.158 25.338C107.105 25.285 107.033 25.2552 106.958 25.255H77.8758Z" fill="#E6E6E6"/>
<path d="M77.8758 26.9503C77.8009 26.9504 77.7292 26.9803 77.6763 27.0332C77.6235 27.0862 77.5937 27.1579 77.5938 27.2328C77.5937 27.3076 77.6235 27.3794 77.6763 27.4323C77.7292 27.4853 77.8009 27.5151 77.8758 27.5153H99.3663C99.4411 27.5151 99.5129 27.4853 99.5657 27.4323C99.6186 27.3794 99.6483 27.3076 99.6483 27.2328C99.6483 27.1579 99.6186 27.0862 99.5657 27.0332C99.5129 26.9803 99.4411 26.9504 99.3663 26.9503H77.8758Z" fill="#E6E6E6"/>
<path d="M62.6714 23.0494C64.0307 23.0494 65.1327 21.948 65.1327 20.5893C65.1327 19.2307 64.0307 18.1293 62.6714 18.1293C61.312 18.1293 60.21 19.2307 60.21 20.5893C60.21 21.948 61.312 23.0494 62.6714 23.0494Z" fill="#A0616A"/>
<path d="M61.8922 18.6213C61.8922 18.6213 63.0408 18.9288 63.6356 19.0518C64.2305 19.1748 64.1689 18.8263 64.1689 18.8263C64.1689 18.8263 64.9484 18.9288 64.9074 18.8468C64.8663 18.7648 65.2355 18.3343 64.8048 17.8423C64.3741 17.3503 64.4971 16.9813 64.4971 16.9813H64.1279L64.0254 16.8378H63.451C63.451 16.8378 62.8161 16.2813 61.6879 16.4453C60.5598 16.6093 59.2256 17.0428 59.1026 17.7193C59.0859 17.811 59.0639 17.913 59.0384 18.0207C58.7299 19.3223 59.3854 20.5402 60.0652 21.6925C60.2323 21.9756 61.0404 22.5931 61.0197 22.1695C60.9991 21.7458 60.2923 20.7943 60.7845 20.7328C61.2768 20.6713 62.1178 19.4208 61.8922 18.6213Z" fill="#2F2E41"/>
<path d="M61.2749 28.5422C60.7998 28.5042 60.3286 28.4269 59.8662 28.3109L59.8921 27.8203L60.1076 23.9196L60.1096 23.8897H64.4454L65.1258 27.4813L65.2176 27.9659C65.038 28.0357 64.8564 28.1015 64.6709 28.1593C64.6689 28.1593 64.6689 28.1613 64.6669 28.1613C64.4095 28.2411 64.1481 28.3109 63.8847 28.3687C63.5344 28.4442 63.18 28.4988 62.8232 28.5322C62.5474 28.5596 62.2704 28.5729 61.9932 28.5721C61.7538 28.5721 61.5123 28.5622 61.2749 28.5422Z" fill="#E61D2B"/>
<path d="M58.4877 27.8482C58.3081 27.7704 58.1345 27.6867 57.9629 27.5989L57.8891 27.5611C57.8392 27.5351 57.7874 27.5072 57.7375 27.4793C57.6696 27.4414 57.6037 27.4035 57.5399 27.3656C57.478 27.3297 57.4142 27.2918 57.3524 27.2539C57.3484 27.2519 57.3464 27.25 57.3424 27.25C57.1269 27.1124 56.9154 26.9708 56.7119 26.8172C56.678 26.7913 56.644 26.7654 56.6101 26.7394L56.5742 26.1651L56.6261 26.1332L60.1079 23.9196L60.1558 23.8897L60.1597 23.8877L60.6506 23.8897V25.7164C60.928 26.1172 61.1155 26.9568 61.2313 28.0556C61.2472 28.2132 61.2612 28.3747 61.2752 28.5422C60.8 28.5042 60.3288 28.4268 59.8665 28.3109C59.8166 28.3009 59.7687 28.2889 59.7188 28.275C59.428 28.1989 59.1416 28.1071 58.8608 27.9998C58.775 27.9679 58.6912 27.934 58.6074 27.9001L58.5994 27.8961C58.5635 27.8801 58.5236 27.8642 58.4877 27.8482Z" fill="#2F2E41"/>
<path d="M57.7372 27.4793C57.6693 27.4415 57.6035 27.4036 57.5397 27.3657C57.4778 27.3298 57.414 27.2919 57.3521 27.254C57.3481 27.252 57.3462 27.25 57.3422 27.25C57.1267 27.1124 56.9152 26.9708 56.7116 26.8173C56.6777 26.7913 56.6438 26.7654 56.6098 26.7395C56.5939 26.7255 56.578 26.7136 56.5599 26.6996C56.4323 26.6019 56.3086 26.5002 56.1888 26.3925C56.1829 26.3885 56.1789 26.3825 56.1729 26.3785C56.2938 26.2856 56.4293 26.2135 56.574 26.1652L56.7156 26.207L57.7253 26.5102L57.7312 26.919L57.7372 27.4793Z" fill="#2F2E41"/>
<path d="M66.2396 27.4853C66.1796 27.5172 66.1198 27.5491 66.06 27.579C66.046 27.587 66.0341 27.593 66.0221 27.599C65.9422 27.6389 65.8645 27.6787 65.7847 27.7166C65.7826 27.7186 65.7786 27.7186 65.7786 27.7206C65.7746 27.7226 65.7687 27.7246 65.7647 27.7266C65.5851 27.8124 65.4035 27.8921 65.2179 27.9659C65.0384 28.0357 64.8568 28.1015 64.6713 28.1593C64.6692 28.1593 64.6692 28.1613 64.6673 28.1613C64.4099 28.2411 64.1485 28.3109 63.885 28.3687C63.8821 28.2049 63.9036 28.0416 63.9489 27.8841L63.9509 27.8562L64.1226 25.0803L63.893 23.8897L64.5515 23.792L68.173 25.7404C68.173 25.7404 67.7739 26.1392 66.1358 26.9887C65.991 27.0639 66.2036 27.3138 66.2396 27.4853Z" fill="#2F2E41"/>
<path d="M62.7792 28.0537C62.5197 28.0776 62.2564 28.0896 61.993 28.0896C61.7376 28.0896 61.4842 28.0796 61.2308 28.0557C61.2468 28.2132 61.2607 28.3747 61.2747 28.5422C61.5122 28.5622 61.7536 28.5722 61.993 28.5722C62.2702 28.5729 62.5472 28.5596 62.823 28.5323C63.1798 28.4989 63.5342 28.4443 63.8845 28.3687C63.8816 28.2049 63.9031 28.0416 63.9484 27.8842L63.9504 27.8562C63.5652 27.9499 63.1738 28.0159 62.7792 28.0537ZM70.3194 16.8621C69.8978 15.6516 69.217 14.5476 68.3246 13.627C67.4322 12.7065 66.3496 11.9916 65.1524 11.5321C63.9551 11.0727 62.672 10.8798 61.3925 10.9669C60.113 11.054 58.8679 11.419 57.744 12.0365C56.6201 12.6539 55.6446 13.5089 54.8853 14.5419C54.126 15.5749 53.6013 16.761 53.3478 18.0175C53.0943 19.2739 53.1181 20.5706 53.4175 21.8169C53.7168 23.0633 54.2846 24.2293 55.0812 25.2338C55.161 25.3336 55.2429 25.4333 55.3267 25.529C55.3347 25.537 55.3387 25.5429 55.3446 25.5489C55.5506 25.7864 55.7698 26.0121 56.0011 26.225C56.057 26.2768 56.1148 26.3287 56.1726 26.3785C56.1787 26.3825 56.1827 26.3885 56.1886 26.3925C56.3083 26.5002 56.4321 26.6019 56.5597 26.6996C56.5777 26.7135 56.5937 26.7255 56.6096 26.7395C56.6436 26.7654 56.6775 26.7913 56.7114 26.8172C56.9149 26.9708 57.1264 27.1124 57.342 27.25C57.3459 27.25 57.3479 27.252 57.3519 27.254C57.4138 27.2919 57.4776 27.3297 57.5394 27.3657C57.6033 27.4035 57.6692 27.4414 57.737 27.4793C57.7869 27.5072 57.8387 27.5352 57.8886 27.5611L57.9625 27.599C58.134 27.6867 58.3077 27.7705 58.4872 27.8483C58.5232 27.8642 58.563 27.8802 58.599 27.8961L58.6069 27.9001C58.6907 27.934 58.7745 27.9679 58.8604 27.9998C59.1411 28.1071 59.4275 28.199 59.7183 28.275C59.7682 28.289 59.8161 28.3009 59.866 28.3109C60.3284 28.4269 60.7995 28.5042 61.2747 28.5422C61.5121 28.5622 61.7536 28.5722 61.993 28.5722C62.2702 28.5729 62.5472 28.5596 62.823 28.5323C63.1798 28.4989 63.5342 28.4443 63.8845 28.3687C64.1479 28.3109 64.4093 28.2411 64.6667 28.1613C64.6687 28.1613 64.6687 28.1594 64.6707 28.1594C64.8562 28.1015 65.0378 28.0357 65.2174 27.9659C65.403 27.8921 65.5846 27.8124 65.7642 27.7266C65.7682 27.7246 65.7741 27.7226 65.7781 27.7206C65.7781 27.7186 65.7821 27.7186 65.7841 27.7166C65.8639 27.6787 65.9417 27.6389 66.0216 27.599C66.0336 27.593 66.0454 27.587 66.0595 27.579C66.1193 27.5491 66.1791 27.5172 66.239 27.4853C66.243 27.4833 66.245 27.4813 66.249 27.4793C66.4066 27.3916 66.5623 27.2998 66.7159 27.2021C66.7578 27.1762 66.7997 27.1503 66.8416 27.1204C66.9035 27.0825 66.9633 27.0406 67.0212 26.9987C67.099 26.9449 67.1768 26.889 67.2527 26.8312C67.2779 26.815 67.3019 26.797 67.3245 26.7774C67.5101 26.6378 67.6896 26.4902 67.8612 26.3346C69.1625 25.1758 70.0906 23.6572 70.5281 21.9711C70.9657 20.285 70.8931 18.507 70.3194 16.8621L70.3194 16.8621ZM67.7116 25.8201C67.4956 26.0232 67.2691 26.2149 67.0332 26.3945C66.9813 26.4343 66.9274 26.4742 66.8736 26.5101C66.8217 26.55 66.7698 26.5879 66.7159 26.6238C66.6701 26.6557 66.6242 26.6876 66.5762 26.7175C66.5722 26.7215 66.5663 26.7235 66.5623 26.7275C66.5283 26.7514 66.4925 26.7734 66.4585 26.7953C66.3527 26.8611 66.243 26.9269 66.1353 26.9887C66.1094 27.0027 66.0854 27.0187 66.0595 27.0326C66.0455 27.0406 66.0315 27.0486 66.0155 27.0565C65.9557 27.0905 65.8958 27.1204 65.836 27.1523C65.828 27.1583 65.8181 27.1602 65.8101 27.1662C65.8071 27.1667 65.8043 27.1681 65.8021 27.1702C65.7602 27.1922 65.7183 27.2121 65.6764 27.232C65.6404 27.25 65.6065 27.2679 65.5706 27.2839C65.4249 27.3537 65.2753 27.4195 65.1256 27.4813C64.968 27.5451 64.8084 27.603 64.6468 27.6568C64.6068 27.6708 64.5649 27.6867 64.5231 27.6987C64.3335 27.7585 64.144 27.8124 63.9504 27.8562C63.5652 27.9499 63.1738 28.0159 62.7792 28.0537C62.5198 28.0776 62.2564 28.0896 61.9931 28.0896C61.7376 28.0896 61.4842 28.0796 61.2308 28.0556C60.7788 28.0143 60.3309 27.9356 59.8919 27.8203C59.876 27.8163 59.858 27.8124 59.8421 27.8084C59.482 27.7145 59.1292 27.5946 58.7865 27.4494C58.7686 27.4414 58.7486 27.4354 58.7327 27.4275C58.7127 27.4195 58.6947 27.4135 58.6788 27.4055C58.6588 27.3976 58.6409 27.3896 58.6229 27.3816C58.4733 27.3158 58.3276 27.244 58.182 27.1702L58.1141 27.1343C57.9844 27.0665 57.8567 26.9967 57.731 26.9189C57.6872 26.895 57.6413 26.8671 57.5973 26.8392C57.5474 26.8093 57.4976 26.7774 57.4496 26.7454C57.4377 26.7375 57.4258 26.7295 57.4138 26.7215C57.302 26.6457 57.1883 26.57 57.0806 26.4882C57.0048 26.4324 56.9309 26.3785 56.8571 26.3207C56.8091 26.2848 56.7613 26.2469 56.7154 26.207C56.6855 26.1851 56.6556 26.1592 56.6256 26.1332C56.5857 26.0993 56.5458 26.0654 56.5059 26.0295C56.4441 25.9797 56.3862 25.9238 56.3303 25.872C56.1056 25.6651 55.8931 25.4453 55.6938 25.2139C55.626 25.1381 55.5621 25.0623 55.5003 24.9826C55.4859 24.9669 55.4725 24.9502 55.4604 24.9327C54.4558 23.6653 53.8421 22.1331 53.694 20.523C53.5459 18.9129 53.8699 17.2946 54.6264 15.8654C55.3829 14.4362 56.5392 13.2579 57.9543 12.4744C59.3694 11.6908 60.9821 11.3358 62.5956 11.4527C64.2092 11.5696 65.7538 12.1533 67.0411 13.1326C68.3283 14.1119 69.3026 15.4445 69.845 16.9678C70.3874 18.491 70.4745 20.1392 70.0957 21.7111C69.7168 23.283 68.8884 24.7107 67.7116 25.8201L67.7116 25.8201Z" fill="#3F3D56"/>
<path d="M21.5188 65.3621L23.133 65.3619L23.9009 59.1392L21.5186 59.1393L21.5188 65.3621Z" fill="#A0616A"/>
<path d="M21.1074 64.8353L24.2863 64.8352H24.2865C24.8238 64.8352 25.339 65.0486 25.7189 65.4283C26.0989 65.808 26.3123 66.3229 26.3123 66.8599V66.9257L21.1075 66.9259L21.1074 64.8353Z" fill="#2F2E41"/>
<path d="M27.5755 65.3621L29.1897 65.3619L29.9575 59.1392L27.5752 59.1393L27.5755 65.3621Z" fill="#A0616A"/>
<path d="M27.1641 64.8353L30.343 64.8352H30.3431C30.8804 64.8352 31.3957 65.0486 31.7756 65.4283C32.1555 65.808 32.3689 66.3229 32.369 66.8599V66.9257L27.1642 66.9259L27.1641 64.8353Z" fill="#2F2E41"/>
<path d="M16.6215 40.7728C16.7536 40.6314 16.853 40.4628 16.9129 40.2788C16.9728 40.0949 16.9915 39.9 16.9679 39.708C16.9442 39.516 16.8788 39.3315 16.7761 39.1675C16.6734 39.0036 16.536 38.8641 16.3735 38.7589L17.495 34.192L15.1919 35.0122L14.4799 39.2233C14.3213 39.5078 14.2726 39.8406 14.343 40.1586C14.4134 40.4766 14.5981 40.7577 14.8621 40.9487C15.126 41.1397 15.4509 41.2273 15.7752 41.1949C16.0995 41.1625 16.4006 41.0123 16.6215 40.7728V40.7728Z" fill="#9E616A"/>
<path d="M33.7564 40.378C33.6243 40.2366 33.5248 40.068 33.4649 39.8841C33.4051 39.7001 33.3863 39.5052 33.41 39.3132C33.4336 39.1212 33.4991 38.9367 33.6018 38.7728C33.7045 38.6088 33.8419 38.4693 34.0044 38.3641L32.8828 33.7972L35.1859 34.6175L35.8979 38.8285C36.0565 39.113 36.1053 39.4458 36.0349 39.7638C35.9644 40.0818 35.7797 40.3629 35.5158 40.5539C35.2518 40.7449 34.9269 40.8325 34.6026 40.8001C34.2784 40.7677 33.9773 40.6175 33.7564 40.378V40.378Z" fill="#9E616A"/>
<path d="M18.7441 37.5715L20.9815 63.7671L24.2553 63.4688L25.5655 43.2232L26.7317 51.2396L26.9653 63.9733L29.9278 63.776L31.5728 50.0771L31.1693 36.8103L19.9228 35.672L18.7441 37.5715Z" fill="#2F2E41"/>
<path d="M24.9 13.7341C26.775 13.7341 28.2951 12.2149 28.2951 10.3409C28.2951 8.46689 26.775 6.94769 24.9 6.94769C23.0249 6.94769 21.5049 8.46689 21.5049 10.3409C21.5049 12.2149 23.0249 13.7341 24.9 13.7341Z" fill="#A0616A"/>
<path d="M23.8238 7.62631C23.8238 7.62631 25.4082 8.05046 26.2286 8.22012C27.0491 8.38979 26.9642 7.90907 26.9642 7.90907C26.9642 7.90907 28.0394 8.05046 27.9828 7.93735C27.9262 7.82424 28.4354 7.23043 27.8413 6.55178C27.2472 5.87313 27.4169 5.36416 27.4169 5.36416H26.9077L26.7662 5.16622H25.974C25.974 5.16622 25.0982 4.39863 23.5421 4.62484C21.986 4.85105 20.1458 5.44898 19.976 6.38212C19.953 6.50869 19.9227 6.64931 19.8875 6.79783C19.462 8.59324 20.3661 10.2731 21.3038 11.8625C21.5342 12.2531 22.6489 13.1048 22.6204 12.5204C22.5919 11.9361 21.617 10.6237 22.296 10.5388C22.975 10.454 24.135 8.72911 23.8238 7.62631Z" fill="#2F2E41"/>
<path d="M21.3662 14.8932H27.3453L31.5731 37.2081C31.5731 37.2081 27.8873 37.5231 25.7806 38.3126C23.674 39.1022 20.1719 36.509 20.1719 36.509L21.3662 14.8932Z" fill="#E61D2B"/>
<path d="M22.1135 17.4132V14.8932L21.4365 14.8891L16.4902 18.0322L17.5635 35.2528C17.5635 35.2528 18.8338 40.9979 20.7606 40.9383C22.6873 40.8788 24.173 20.3979 22.1135 17.4132Z" fill="#2F2E41"/>
<path d="M18.0782 18.5079L16.4894 18.0322C16.4894 18.0322 15.3132 18.3763 15.3132 19.5607C15.3132 20.745 14.2998 37.5716 14.2998 37.5716L17.5191 37.8559L18.2098 29.2986L18.0782 18.5079Z" fill="#2F2E41"/>
<path d="M26.9001 16.534L26.5834 14.8932L27.4926 14.7575L30.7842 16.0734C30.7842 16.0734 33.7467 37.7205 32.4301 38.3785C31.1134 39.0364 30.2244 38.5267 30.2244 38.5267C30.2244 38.5267 25.8938 22.561 26.6603 20.4029L26.9001 16.534Z" fill="#2F2E41"/>
<path d="M28.4805 16.4024L29.0422 16.158C29.0422 16.158 30.6911 15.3414 31.6266 16.9904C32.5621 18.6395 35.8537 37.0625 35.8537 37.0625L33.1453 37.5715L31.1205 30.9414L28.4805 16.4024Z" fill="#2F2E41"/>
<path d="M50.2961 67H0.131665C0.0967455 67 0.0632558 66.9861 0.0385638 66.9615C0.0138717 66.9368 0 66.9033 0 66.8684C0 66.8335 0.0138717 66.8 0.0385638 66.7754C0.0632558 66.7507 0.0967455 66.7368 0.131665 66.7368H50.2961C50.331 66.7368 50.3645 66.7507 50.3892 66.7754C50.4139 66.8 50.4278 66.8335 50.4278 66.8684C50.4278 66.9033 50.4139 66.9368 50.3892 66.9615C50.3645 66.9861 50.331 67 50.2961 67Z" fill="#CACACA"/>
</g>
<defs>
<clipPath id="clip0_1_424">
<rect width="119" height="67" fill="white"/>
</clipPath>
</defs>
</svg>
