<svg width="106" height="67" viewBox="0 0 106 67" fill="none" xmlns="http://www.w3.org/2000/svg">
<path d="M77.1456 5.09173H7.60416C7.53355 5.09024 7.46633 5.06148 7.41692 5.01162C7.36751 4.96176 7.33984 4.89476 7.33984 4.82498C7.33984 4.7552 7.36751 4.6882 7.41692 4.63833C7.46633 4.58847 7.53355 4.55971 7.60416 4.55823H77.1456C77.2162 4.55971 77.2834 4.58847 77.3328 4.63833C77.3823 4.6882 77.4099 4.7552 77.4099 4.82498C77.4099 4.89476 77.3823 4.96176 77.3328 5.01162C77.2834 5.06148 77.2162 5.09024 77.1456 5.09173Z" fill="#CACACA"/>
<path d="M12.2259 3.19626C13.0999 3.19626 13.8083 2.48076 13.8083 1.59813C13.8083 0.715508 13.0999 0 12.2259 0C11.352 0 10.6436 0.715508 10.6436 1.59813C10.6436 2.48076 11.352 3.19626 12.2259 3.19626Z" fill="#3F3D56"/>
<path d="M17.6918 3.19626C18.5657 3.19626 19.2741 2.48076 19.2741 1.59813C19.2741 0.715508 18.5657 0 17.6918 0C16.8178 0 16.1094 0.715508 16.1094 1.59813C16.1094 2.48076 16.8178 3.19626 17.6918 3.19626Z" fill="#3F3D56"/>
<path d="M23.1586 3.19626C24.0325 3.19626 24.7409 2.48076 24.7409 1.59813C24.7409 0.715508 24.0325 0 23.1586 0C22.2846 0 21.5762 0.715508 21.5762 1.59813C21.5762 2.48076 22.2846 3.19626 23.1586 3.19626Z" fill="#3F3D56"/>
<path d="M73.8549 0.396118H69.9718C69.8949 0.397632 69.8216 0.428902 69.7677 0.483211C69.7138 0.53752 69.6836 0.610539 69.6836 0.68659C69.6836 0.762641 69.7138 0.83566 69.7677 0.889969C69.8216 0.944278 69.8949 0.975546 69.9718 0.97706H73.8549C73.9318 0.975546 74.0051 0.944278 74.059 0.889969C74.1129 0.83566 74.1431 0.762641 74.1431 0.68659C74.1431 0.610539 74.1129 0.53752 74.059 0.483211C74.0051 0.428902 73.9318 0.397632 73.8549 0.396118V0.396118Z" fill="#3F3D56"/>
<path d="M73.8549 1.48645H69.9718C69.8949 1.48796 69.8216 1.51923 69.7677 1.57354C69.7138 1.62785 69.6836 1.70087 69.6836 1.77692C69.6836 1.85297 69.7138 1.92599 69.7677 1.9803C69.8216 2.03461 69.8949 2.06588 69.9718 2.06739H73.8549C73.9318 2.06588 74.0051 2.03461 74.059 1.9803C74.1129 1.92599 74.1431 1.85297 74.1431 1.77692C74.1431 1.70087 74.1129 1.62785 74.059 1.57354C74.0051 1.51923 73.9318 1.48796 73.8549 1.48645V1.48645Z" fill="#3F3D56"/>
<path d="M73.8549 2.57538H69.9718C69.8949 2.57689 69.8216 2.60816 69.7677 2.66247C69.7138 2.71678 69.6836 2.7898 69.6836 2.86585C69.6836 2.9419 69.7138 3.01492 69.7677 3.06923C69.8216 3.12354 69.8949 3.15481 69.9718 3.15632H73.8549C73.9318 3.15481 74.0051 3.12354 74.059 3.06923C74.1129 3.01492 74.1431 2.9419 74.1431 2.86585C74.1431 2.7898 74.1129 2.71678 74.059 2.66247C74.0051 2.60816 73.9318 2.57689 73.8549 2.57538V2.57538Z" fill="#3F3D56"/>
<path d="M26.7275 53.4784L26.8228 19.5296C26.8255 18.8425 27.104 18.1845 27.5972 17.7C28.0903 17.2155 28.7579 16.944 29.4534 16.9451L55.4053 17.0162C56.1008 17.0189 56.7669 17.294 57.2573 17.7812C57.7477 18.2685 58.0225 18.928 58.0214 19.6151L57.9261 53.5639C57.9234 54.251 57.6449 54.909 57.1517 55.3935C56.6586 55.878 55.991 56.1495 55.2955 56.1484L29.3436 56.0773C28.6481 56.0746 27.9821 55.7995 27.4916 55.3123C27.0012 54.8251 26.7264 54.1655 26.7275 53.4784V53.4784Z" fill="#E6E6E6"/>
<path d="M28.7481 43.23L28.8093 21.4046C28.8118 20.7611 29.0726 20.1448 29.5345 19.6911C29.9964 19.2373 30.6216 18.9831 31.273 18.9841L53.5764 19.0452C54.2278 19.0477 54.8516 19.3054 55.3109 19.7617C55.7703 20.218 56.0276 20.8356 56.0266 21.4792L55.9418 51.689C55.9392 52.3325 55.6784 52.9487 55.2165 53.4025C54.7546 53.8563 54.1294 54.1105 53.478 54.1094L39.6615 54.0716C36.7601 54.0604 33.9816 52.9127 31.9356 50.8802C29.8897 48.8477 28.7433 46.0964 28.7481 43.23V43.23Z" fill="white"/>
<path d="M51.0702 36.0218H33.6792C33.4025 36.0218 33.1371 35.9132 32.9414 35.7199C32.7457 35.5266 32.6357 35.2644 32.6357 34.991C32.6357 34.7176 32.7457 34.4553 32.9414 34.262C33.1371 34.0687 33.4025 33.9601 33.6792 33.9601H51.0702C51.3469 33.9601 51.6123 34.0687 51.808 34.262C52.0037 34.4553 52.1136 34.7176 52.1136 34.991C52.1136 35.2644 52.0037 35.5266 51.808 35.7199C51.6123 35.9132 51.3469 36.0218 51.0702 36.0218V36.0218Z" fill="#E61D2B"/>
<path d="M37.5052 30.3684H33.6792C33.4025 30.3684 33.1371 30.2598 32.9414 30.0665C32.7457 29.8731 32.6357 29.6109 32.6357 29.3375C32.6357 29.0641 32.7457 28.8019 32.9414 28.6086C33.1371 28.4153 33.4025 28.3066 33.6792 28.3066H37.5052C37.782 28.3066 38.0474 28.4153 38.2431 28.6086C38.4387 28.8019 38.5487 29.0641 38.5487 29.3375C38.5487 29.6109 38.4387 29.8731 38.2431 30.0665C38.0474 30.2598 37.782 30.3684 37.5052 30.3684V30.3684Z" fill="#E61D2B"/>
<path d="M51.0702 45.0858H33.6792C33.4025 45.0858 33.1371 44.9772 32.9414 44.7839C32.7457 44.5905 32.6357 44.3283 32.6357 44.0549C32.6357 43.7815 32.7457 43.5193 32.9414 43.326C33.1371 43.1327 33.4025 43.024 33.6792 43.024H51.0702C51.3469 43.024 51.6123 43.1327 51.808 43.326C52.0037 43.5193 52.1136 43.7815 52.1136 44.0549C52.1136 44.3283 52.0037 44.5905 51.808 44.7839C51.6123 44.9772 51.3469 45.0858 51.0702 45.0858V45.0858Z" fill="#E61D2B"/>
<path d="M51.0702 40.5538H33.6792C33.4025 40.5538 33.1371 40.4452 32.9414 40.2519C32.7457 40.0585 32.6357 39.7963 32.6357 39.5229C32.6357 39.2495 32.7457 38.9873 32.9414 38.794C33.1371 38.6007 33.4025 38.4921 33.6792 38.4921H51.0702C51.3469 38.4921 51.6123 38.6007 51.808 38.794C52.0037 38.9873 52.1136 39.2495 52.1136 39.5229C52.1136 39.7963 52.0037 40.0585 51.808 40.2519C51.6123 40.4452 51.3469 40.5538 51.0702 40.5538V40.5538Z" fill="#E61D2B"/>
<path d="M4.15192 67C6.44497 67 8.30385 65.1636 8.30385 62.8982C8.30385 60.6328 6.44497 58.7963 4.15192 58.7963C1.85888 58.7963 0 60.6328 0 62.8982C0 65.1636 1.85888 67 4.15192 67Z" fill="#E61D2B"/>
<path d="M3.58505 65.033C3.51336 65.033 3.44264 65.0165 3.37852 64.9848C3.3144 64.9531 3.25862 64.9071 3.21562 64.8504L2.08291 63.3583C2.04644 63.3104 2.01989 63.2559 2.00478 63.1978C1.98967 63.1397 1.98629 63.0793 1.99484 63.0199C2.00339 62.9605 2.0237 62.9034 2.05461 62.8518C2.08552 62.8002 2.12642 62.7551 2.17498 62.7192C2.22354 62.6832 2.27879 62.657 2.33759 62.6422C2.39639 62.6273 2.45758 62.624 2.51766 62.6325C2.57774 62.6411 2.63553 62.6612 2.68772 62.6918C2.73992 62.7224 2.7855 62.7628 2.82186 62.8109L3.56292 63.7869L5.46622 60.9665C5.53422 60.8659 5.63986 60.7961 5.75991 60.7724C5.87996 60.7488 6.00461 60.7732 6.10647 60.8402C6.20833 60.9073 6.27906 61.0116 6.30312 61.1302C6.32718 61.2488 6.30261 61.372 6.23479 61.4727L3.96937 64.8298C3.92839 64.8905 3.87327 64.9406 3.80864 64.976C3.74401 65.0113 3.67174 65.0308 3.5979 65.0328C3.59362 65.0329 3.58933 65.033 3.58505 65.033Z" fill="white"/>
<path d="M4.18954 53.9103H3.89062V54.7962H4.18954V53.9103Z" fill="#2F2E41"/>
<path d="M4.18954 52.2187H3.89062V50.5271H4.18954V52.2187ZM4.18954 48.8354H3.89062V47.1439H4.18954V48.8354ZM4.18954 45.4524H3.89062V43.7607H4.18954V45.4524ZM4.18954 42.0691H3.89062V40.3776H4.18954V42.0691ZM4.18954 38.6859H3.89062V36.9944H4.18954V38.6859Z" fill="#2F2E41"/>
<path d="M4.18856 35.3029H3.88965V34.2693H4.93585V34.5646H4.18856V35.3029Z" fill="#2F2E41"/>
<path d="M19.0447 34.5646H17.2811V34.2693H19.0447V34.5646ZM15.5174 34.5646H13.7538V34.2693H15.5174V34.5646ZM11.9901 34.5646H10.2265V34.2693H11.9901V34.5646ZM8.46286 34.5646H6.69922V34.2693H8.46286V34.5646Z" fill="#2F2E41"/>
<path d="M21.7053 34.2693H20.8086V34.5646H21.7053V34.2693Z" fill="#2F2E41"/>
<path d="M100.336 44.9995H100.037V45.8854H100.336V44.9995Z" fill="#2F2E41"/>
<path d="M100.336 43.0602H100.037V41.121H100.336V43.0602ZM100.336 39.1816H100.037V37.2423H100.336V39.1816Z" fill="#2F2E41"/>
<path d="M100.336 35.3029H100.037V34.5646H99.29V34.2693H100.336V35.3029Z" fill="#2F2E41"/>
<path d="M97.4329 34.5646H95.5749V34.2693H97.4329V34.5646ZM93.7169 34.5646H91.8588V34.2693H93.7169V34.5646ZM90.0008 34.5646H88.1428V34.2693H90.0008V34.5646ZM86.2848 34.5646H84.4268V34.2693H86.2848V34.5646ZM82.5688 34.5646H80.7107V34.2693H82.5688L82.5688 34.5646ZM78.8528 34.5646H76.9948V34.2693H78.8528V34.5646ZM75.1368 34.5646H73.2788V34.2693H75.1368V34.5646ZM71.4208 34.5646H69.5627V34.2693H71.4208V34.5646ZM67.7047 34.5646H65.8467V34.2693H67.7047V34.5646Z" fill="#2F2E41"/>
<path d="M63.9885 34.2693H63.0918V34.5646H63.9885V34.2693Z" fill="#2F2E41"/>
<path d="M100.281 56.6641C102.574 56.6641 104.433 54.8277 104.433 52.5623C104.433 50.2969 102.574 48.4604 100.281 48.4604C97.9878 48.4604 96.1289 50.2969 96.1289 52.5623C96.1289 54.8277 97.9878 56.6641 100.281 56.6641Z" fill="#E61D2B"/>
<path d="M101.098 52.5624L101.915 51.7554C102.023 51.6483 102.084 51.5033 102.083 51.3522C102.083 51.2011 102.022 51.0562 101.914 50.9493C101.806 50.8425 101.66 50.7824 101.507 50.7822C101.354 50.7821 101.207 50.8418 101.098 50.9485L100.282 51.7554L99.4648 50.9485C99.3564 50.8418 99.2097 50.7821 99.0567 50.7822C98.9037 50.7824 98.7571 50.8425 98.6489 50.9493C98.5408 51.0562 98.4799 51.2011 98.4798 51.3522C98.4796 51.5033 98.5401 51.6483 98.6481 51.7554L99.4648 52.5624L98.6481 53.3693C98.5941 53.4222 98.5513 53.4851 98.5221 53.5544C98.4928 53.6237 98.4777 53.698 98.4775 53.7731C98.4774 53.8482 98.4923 53.9226 98.5213 53.992C98.5503 54.0614 98.593 54.1245 98.6467 54.1776C98.7004 54.2307 98.7643 54.2728 98.8345 54.3014C98.9048 54.3301 98.98 54.3448 99.0561 54.3447C99.1321 54.3446 99.2073 54.3296 99.2774 54.3007C99.3476 54.2718 99.4113 54.2295 99.4648 54.1762L100.282 53.3693L101.098 54.1762C101.152 54.2295 101.216 54.2718 101.286 54.3007C101.356 54.3296 101.431 54.3446 101.507 54.3447C101.583 54.3448 101.658 54.3301 101.729 54.3014C101.799 54.2728 101.863 54.2307 101.917 54.1776C101.97 54.1245 102.013 54.0614 102.042 53.992C102.071 53.9226 102.086 53.8482 102.086 53.7731C102.086 53.698 102.07 53.6237 102.041 53.5544C102.012 53.4851 101.969 53.4222 101.915 53.3693L101.098 52.5624Z" fill="white"/>
<path d="M88.6318 28.0192L89.5286 33.2778L98.0477 28.7575L88.6318 28.0192Z" fill="#2F2E41"/>
<path d="M87.6148 60.7161L85.8301 60.6442L85.2617 53.8096L87.8956 53.9157L87.6148 60.7161Z" fill="#FFB6B6"/>
<path d="M87.7352 41.1605C90.9724 40.1854 91.6368 36.0167 93.4146 35.1066C93.41 32.9049 93.4997 26.0773 91.275 26.2073C90.0361 26.2797 83.1332 38.7624 82.8373 40.8305C82.2883 44.6674 85.2194 54.4604 84.8793 55.1331L88.283 55.3459L88.3029 55.0813C88.3569 54.3633 88.8995 52.1986 88.2805 51.8187L88.046 51.6747C88.0481 50.9282 88.213 49.6566 87.5315 49.3342C87.5228 49.3301 87.5151 49.3243 87.5089 49.317C87.5026 49.3098 87.498 49.3014 87.4953 49.2923C87.4926 49.2832 87.4918 49.2736 87.4931 49.2642C87.4944 49.2548 87.4976 49.2458 87.5027 49.2377L87.7352 41.1605Z" fill="#2F2E41"/>
<path d="M88.5341 62.2454L87.3407 62.3149L87.0613 61.2142L86.5821 62.3591L83.4169 62.5435C83.2651 62.5523 83.1145 62.513 82.987 62.4313C82.8595 62.3496 82.7618 62.2298 82.7081 62.0893C82.6544 61.9488 82.6475 61.7951 82.6886 61.6505C82.7296 61.5059 82.8163 61.3781 82.9361 61.2856L85.3608 59.4137L85.2937 58.2884L87.9617 58.2903L88.5341 62.2454Z" fill="#2F2E41"/>
<path d="M101.217 48.3982L102.997 48.5407L104.401 41.8248L101.773 41.6144L101.217 48.3982Z" fill="#FFB6B6"/>
<path d="M100.519 31.3778C98.9223 34.1499 96.0659 34.8117 93.104 35.2967C91.8162 33.4998 89.8532 30.9946 91.7425 29.8269C92.7947 29.1765 101.915 23.9156 103.323 25.4736C106.999 29.5413 104.377 42.631 104.603 42.3417L101.691 42.2998L101.52 42.0955C101.291 41.8236 101.143 41.4952 101.09 41.1458C101.038 40.7965 101.083 40.4395 101.221 40.1137L101.328 39.8621C101.112 39.5647 100.987 39.2129 100.965 38.8478C100.944 38.4827 101.028 38.1191 101.208 37.7992L101.245 37.7335L100.519 31.3778Z" fill="#2F2E41"/>
<path d="M101.17 45.9487L103.819 46.2666L103.614 47.3756L105.791 49.5242C105.898 49.6304 105.969 49.7676 105.992 49.9161C106.015 50.0645 105.989 50.2163 105.918 50.3493C105.848 50.4823 105.736 50.5895 105.6 50.6554C105.463 50.7212 105.309 50.7421 105.159 50.7152L102.04 50.1528L101.705 48.9589L101.292 50.0181L100.116 49.806L101.17 45.9487Z" fill="#2F2E41"/>
<path d="M94.25 9.26709H93.0281C92.7785 9.26709 92.5327 9.32686 92.3116 9.44128C92.0906 9.5557 91.9009 9.72136 91.7588 9.92407L90.874 11.1866L88.6696 11.5827C87.9039 12.0499 87.327 12.7663 87.0383 13.6085C86.7497 14.4506 86.7673 15.3659 87.0882 16.1966C88.6481 20.2273 89.4011 27.7821 87.8849 31.12C87.8849 31.12 97.0829 31.9431 99.3931 29.2005C101.703 26.4578 99.8415 13.1061 99.8415 13.1061L96.404 11.1866L95.5193 9.9241C95.3772 9.72139 95.1875 9.55572 94.9665 9.44129C94.7454 9.32687 94.4996 9.26709 94.25 9.26709V9.26709Z" fill="#E61D2B"/>
<path d="M99.9509 32.8583C100.054 32.7506 100.133 32.6219 100.18 32.4812C100.228 32.3404 100.244 32.1911 100.226 32.0437C100.209 31.8962 100.16 31.7543 100.081 31.6279C100.002 31.5015 99.8966 31.3936 99.7712 31.3119L101.785 24.7708L99.543 23.4419L98.2989 31.6563C98.174 31.8735 98.1341 32.1285 98.1867 32.3729C98.2393 32.6172 98.3809 32.834 98.5845 32.9822C98.7881 33.1304 99.0397 33.1996 99.2915 33.1767C99.5434 33.1539 99.778 33.0406 99.9509 32.8583H99.9509Z" fill="#FFB6B6"/>
<path d="M101.934 25.5091L99.2435 24.4755L99.3584 23.1485L96.1619 16.2358C96.0039 15.8942 95.924 15.5223 95.9279 15.1466C95.9317 14.771 96.0192 14.4008 96.1841 14.0624C96.3491 13.7239 96.5874 13.4254 96.8823 13.1882C97.1771 12.951 97.5211 12.7808 97.89 12.6897V12.6897C98.5565 12.5259 99.2615 12.63 99.8504 12.9791C100.439 13.3283 100.864 13.8939 101.031 14.552L103.132 22.8566C103.375 24.1455 103.1 25.1082 101.934 25.5091Z" fill="#E61D2B"/>
<path d="M98.2119 5.24351C98.2119 4.04716 97.7309 2.89981 96.8746 2.05386C96.0183 1.20792 94.857 0.732666 93.646 0.732666C92.435 0.732666 91.2737 1.20792 90.4174 2.05386C89.5611 2.89981 89.0801 4.04716 89.0801 5.24351V8.0711C89.0803 8.23159 89.1449 8.38545 89.2598 8.49893C89.3747 8.61241 89.5304 8.67626 89.6928 8.67648H89.8049C89.9344 8.31011 90.0133 7.92819 90.0396 7.54102C90.2754 7.89002 90.4549 8.27307 90.5717 8.67648H97.5977C97.7603 8.67632 97.9162 8.61253 98.0313 8.49908C98.1464 8.38562 98.2114 8.23174 98.2119 8.0711C98.5811 7.32692 98.747 6.47348 98.2119 5.24351Z" fill="#2F2E41"/>
<path d="M93.4627 8.64855C95.3114 8.64855 96.8101 7.16793 96.8101 5.34149C96.8101 3.51505 95.3114 2.03442 93.4627 2.03442C91.6139 2.03442 90.1152 3.51505 90.1152 5.34149C90.1152 7.16793 91.6139 8.64855 93.4627 8.64855Z" fill="#FFB8B8"/>
<path d="M90.0227 5.32876C89.9907 5.29229 89.967 5.24945 89.9533 5.20315C89.9395 5.15684 89.936 5.10816 89.9429 5.06039L90.3394 2.33247C90.3473 2.27697 90.3691 2.22427 90.4027 2.17916C90.4364 2.13404 90.4809 2.09793 90.5322 2.07409C92.5562 1.13827 94.6086 1.13709 96.6326 2.07055C96.6863 2.09569 96.7325 2.13417 96.7666 2.18223C96.8007 2.23028 96.8217 2.28627 96.8273 2.34471L97.2415 4.48555C97.246 4.53225 97.2405 4.57936 97.2255 4.62387C97.2106 4.66838 97.1864 4.70931 97.1545 4.74406C97.09 4.81402 97 6.35235 96.9041 6.35235C96.9849 5.43544 96.7894 4.99674 96.0815 5.44487C96.0167 5.44471 95.9533 5.42638 95.8986 5.392C95.844 5.35761 95.8003 5.3086 95.7728 5.25065L95.483 4.63738C95.4643 4.59767 95.433 4.56506 95.3938 4.54447C95.3547 4.52388 95.3098 4.51643 95.266 4.52325C95.2222 4.53006 95.1818 4.55077 95.1509 4.58224C95.1201 4.61372 95.1004 4.65426 95.0949 4.69774L95.0377 5.14993C95.0273 5.23131 94.9872 5.30617 94.925 5.36046C94.8628 5.41475 94.7826 5.44476 94.6996 5.44487C93.5167 6.02473 91.9655 5.86867 90.2802 5.44487C90.2313 5.44487 90.1831 5.43451 90.1386 5.41448C90.0942 5.39445 90.0547 5.36521 90.0227 5.32876V5.32876Z" fill="#2F2E41"/>
<path d="M96.1315 23.7284H90.6451C90.4573 23.7282 90.2772 23.6544 90.1443 23.5231C90.0115 23.3919 89.9367 23.2139 89.9365 23.0283V17.2022C89.9367 17.0166 90.0115 16.8386 90.1443 16.7074C90.2771 16.5762 90.4573 16.5023 90.6451 16.5021H96.1315C96.3193 16.5023 96.4995 16.5762 96.6323 16.7074C96.7651 16.8386 96.8399 17.0166 96.8401 17.2022V23.0283C96.8399 23.2139 96.7651 23.3919 96.6323 23.5231C96.4995 23.6544 96.3193 23.7282 96.1315 23.7284V23.7284Z" fill="#3F3D56"/>
<path d="M90.7996 17.7607C91.0265 17.7607 91.2105 17.5789 91.2105 17.3547C91.2105 17.1305 91.0265 16.9487 90.7996 16.9487C90.5726 16.9487 90.3887 17.1305 90.3887 17.3547C90.3887 17.5789 90.5726 17.7607 90.7996 17.7607Z" fill="#E6E6E6"/>
<path d="M90.7993 17.5982C90.9355 17.5982 91.0458 17.4892 91.0458 17.3547C91.0458 17.2201 90.9355 17.1111 90.7993 17.1111C90.6631 17.1111 90.5527 17.2201 90.5527 17.3547C90.5527 17.4892 90.6631 17.5982 90.7993 17.5982Z" fill="#3F3D56"/>
<path d="M97.1044 19.8017C96.9825 19.9355 96.8324 20.0412 96.6646 20.1115C96.4968 20.1818 96.3155 20.2148 96.1334 20.2084C95.9513 20.2019 95.7728 20.1561 95.6105 20.0742C95.4483 19.9922 95.3062 19.8761 95.1943 19.734L90.2756 21.0794L89.5283 19.4552L95.4759 17.942C95.73 17.7721 96.0383 17.7002 96.3425 17.7398C96.6467 17.7795 96.9255 17.928 97.1263 18.1573C97.327 18.3865 97.4356 18.6805 97.4316 18.9836C97.4276 19.2866 97.3112 19.5777 97.1044 19.8017H97.1044Z" fill="#FFB8B8"/>
<path d="M90.86 21.1213L89.4798 21.5565C87.9789 23.1233 87.4477 21.9864 85.6789 21.8687C85.346 21.8466 85.0855 21.5767 84.9047 21.0666C84.6584 20.3493 84.683 19.5682 84.974 18.8675L87.4311 12.7835L88.4595 11.951L89.8956 13.6511L88.7931 18.325L90.603 19.2364L90.86 21.1213Z" fill="#E61D2B"/>
</svg>
