<svg width="84" height="84" viewBox="0 0 84 84" fill="none" xmlns="http://www.w3.org/2000/svg">
<g filter="url(#filter0_d_74_2795)">
<circle cx="42" cy="42" r="32" fill="white"/>
</g>
<path d="M51.8667 41.3667C51.7873 41.1621 51.6684 40.9752 51.5167 40.8167L43.1833 32.4833C43.0279 32.3279 42.8435 32.2047 42.6404 32.1206C42.4374 32.0365 42.2198 31.9932 42 31.9932C41.5562 31.9932 41.1305 32.1695 40.8167 32.4833C40.6613 32.6387 40.538 32.8232 40.4539 33.0262C40.3698 33.2293 40.3265 33.4469 40.3265 33.6667C40.3265 34.1105 40.5028 34.5361 40.8167 34.85L46.3167 40.3333H33.6667C33.2246 40.3333 32.8007 40.5089 32.4882 40.8215C32.1756 41.134 32 41.558 32 42C32 42.442 32.1756 42.8659 32.4882 43.1785C32.8007 43.4911 33.2246 43.6667 33.6667 43.6667H46.3167L40.8167 49.15C40.6605 49.3049 40.5365 49.4893 40.4518 49.6924C40.3672 49.8955 40.3237 50.1133 40.3237 50.3333C40.3237 50.5533 40.3672 50.7712 40.4518 50.9743C40.5365 51.1774 40.6605 51.3617 40.8167 51.5166C40.9716 51.6729 41.1559 51.7969 41.359 51.8815C41.5621 51.9661 41.78 52.0096 42 52.0096C42.22 52.0096 42.4379 51.9661 42.641 51.8815C42.8441 51.7969 43.0284 51.6729 43.1833 51.5166L51.5167 43.1833C51.6684 43.0248 51.7873 42.8379 51.8667 42.6333C52.0334 42.2275 52.0334 41.7724 51.8667 41.3667Z" fill="#00194A"/>
<defs>
<filter id="filter0_d_74_2795" x="0" y="0" width="84" height="84" filterUnits="userSpaceOnUse" color-interpolation-filters="sRGB">
<feFlood flood-opacity="0" result="BackgroundImageFix"/>
<feColorMatrix in="SourceAlpha" type="matrix" values="0 0 0 0 0 0 0 0 0 0 0 0 0 0 0 0 0 0 127 0" result="hardAlpha"/>
<feOffset/>
<feGaussianBlur stdDeviation="5"/>
<feComposite in2="hardAlpha" operator="out"/>
<feColorMatrix type="matrix" values="0 0 0 0 0 0 0 0 0 0 0 0 0 0 0 0 0 0 0.25 0"/>
<feBlend mode="normal" in2="BackgroundImageFix" result="effect1_dropShadow_74_2795"/>
<feBlend mode="normal" in="SourceGraphic" in2="effect1_dropShadow_74_2795" result="shape"/>
</filter>
</defs>
</svg>
