<svg width="84" height="84" viewBox="0 0 84 84" fill="none" xmlns="http://www.w3.org/2000/svg">
<g filter="url(#filter0_d_74_2798)">
<circle cx="42" cy="42" r="32" transform="rotate(180 42 42)" fill="white"/>
</g>
<path d="M32.1333 42.6334C32.2127 42.8379 32.3316 43.0248 32.4833 43.1834L40.8167 51.5167C40.9721 51.6721 41.1565 51.7953 41.3596 51.8794C41.5626 51.9636 41.7802 52.0068 42 52.0068C42.4438 52.0068 42.8695 51.8305 43.1833 51.5167C43.3387 51.3613 43.462 51.1768 43.5461 50.9738C43.6302 50.7707 43.6735 50.5531 43.6735 50.3334C43.6735 49.8895 43.4972 49.4639 43.1833 49.15L37.6833 43.6667L50.3333 43.6667C50.7754 43.6667 51.1993 43.4911 51.5118 43.1785C51.8244 42.866 52 42.442 52 42C52 41.558 51.8244 41.1341 51.5118 40.8215C51.1993 40.5089 50.7754 40.3333 50.3333 40.3333L37.6833 40.3334L43.1833 34.85C43.3395 34.6951 43.4635 34.5107 43.5482 34.3076C43.6328 34.1045 43.6763 33.8867 43.6763 33.6667C43.6763 33.4467 43.6328 33.2288 43.5482 33.0257C43.4635 32.8226 43.3395 32.6383 43.1833 32.4834C43.0284 32.3271 42.8441 32.2031 42.641 32.1185C42.4379 32.0339 42.22 31.9904 42 31.9904C41.78 31.9904 41.5621 32.0339 41.359 32.1185C41.1559 32.2031 40.9716 32.3271 40.8167 32.4834L32.4833 40.8167C32.3316 40.9752 32.2127 41.1621 32.1333 41.3667C31.9666 41.7725 31.9666 42.2276 32.1333 42.6334Z" fill="#00194A"/>
<defs>
<filter id="filter0_d_74_2798" x="0" y="0" width="84" height="84" filterUnits="userSpaceOnUse" color-interpolation-filters="sRGB">
<feFlood flood-opacity="0" result="BackgroundImageFix"/>
<feColorMatrix in="SourceAlpha" type="matrix" values="0 0 0 0 0 0 0 0 0 0 0 0 0 0 0 0 0 0 127 0" result="hardAlpha"/>
<feOffset/>
<feGaussianBlur stdDeviation="5"/>
<feComposite in2="hardAlpha" operator="out"/>
<feColorMatrix type="matrix" values="0 0 0 0 0 0 0 0 0 0 0 0 0 0 0 0 0 0 0.25 0"/>
<feBlend mode="normal" in2="BackgroundImageFix" result="effect1_dropShadow_74_2798"/>
<feBlend mode="normal" in="SourceGraphic" in2="effect1_dropShadow_74_2798" result="shape"/>
</filter>
</defs>
</svg>
