<svg width="152" height="125" viewBox="0 0 152 125" fill="none" xmlns="http://www.w3.org/2000/svg">
<g clip-path="url(#clip0_1_2950)">
<path d="M121.41 13.0067C121.08 14.2255 121.459 16.1447 121.601 17.2825C121.754 18.4989 119.645 19.5875 118.438 19.6563C118.468 19.2536 118.355 18.8534 118.119 18.5259C118.116 18.9154 118.036 19.3005 117.883 19.6587H107.815C106.547 17.2726 105.468 14.0117 106.633 10.6403C106.692 9.96314 106.95 9.31854 107.374 8.78737C107.798 8.25619 108.369 7.86211 109.017 7.65458L114.507 5.89758C116.672 5.89758 119.328 6.20475 120.525 7.81677C121.055 8.55894 121.409 9.41141 121.563 10.3103C121.716 11.2091 121.663 12.131 121.41 13.0067Z" fill="#2F2E41"/>
<path d="M131.049 118.447C131.229 118.453 131.406 118.404 131.557 118.307C131.708 118.209 131.825 118.068 131.892 117.902C131.96 117.735 131.975 117.552 131.935 117.377C131.895 117.202 131.803 117.043 131.67 116.923C131.647 116.835 131.63 116.772 131.607 116.685C131.775 116.247 132.069 115.869 132.453 115.6C132.836 115.331 133.292 115.182 133.76 115.173C134.229 115.164 134.689 115.296 135.083 115.55C135.476 115.805 135.785 116.171 135.969 116.602C137.03 119.021 138.397 121.524 137.755 124.206C142.078 114.812 140.467 103.194 133.869 95.2581C132.057 94.2823 130.58 92.5322 130.18 90.4874C131.075 90.7812 132.18 90.0449 131.5 89.1117C131.206 88.7553 130.909 88.4018 130.615 88.0454C133.97 84.4042 138.061 90.0377 134.378 94.9442C135.612 96.4623 136.685 98.1055 137.578 99.8467C137.358 97.9908 137.582 96.1092 138.231 94.3566C138.89 92.7228 140.141 91.3401 141.242 89.9226C142.579 88.1954 145.373 88.9597 145.576 91.1334C144.331 91.556 144.185 93.3624 145.617 93.5958C145.281 97.6464 142.673 101.391 139.048 103.2C140.429 106.961 140.992 110.972 140.7 114.967C141.299 110.296 146.296 109.116 149.779 107.228C150.001 107.083 150.26 107.006 150.524 107.005C150.789 107.005 151.048 107.082 151.27 107.226C151.492 107.37 151.667 107.576 151.774 107.818C151.881 108.06 151.915 108.328 151.872 108.589C151.391 108.79 150.931 109.039 150.499 109.331C150.296 109.47 150.142 109.668 150.056 109.898C149.971 110.128 149.959 110.379 150.021 110.617C150.084 110.854 150.219 111.066 150.407 111.224C150.595 111.382 150.828 111.478 151.072 111.498C149.349 115.882 144.815 118.858 140.13 118.886C139.698 120.847 139.064 122.758 138.237 124.587L131.283 124.654C131.257 124.577 131.234 124.497 131.211 124.42C131.855 124.454 132.501 124.41 133.134 124.287C131.412 122.287 130.085 121.271 131.049 118.447L131.049 118.447Z" fill="#F2F2F2"/>
<path d="M116.697 119.845H113.984L112.693 109.383H116.697V119.845Z" fill="#FFB6B6"/>
<path d="M118.129 124.545H116.183L115.836 122.708L114.947 124.545H109.788C109.54 124.545 109.3 124.466 109.1 124.319C108.901 124.172 108.754 123.966 108.68 123.73C108.607 123.494 108.611 123.24 108.691 123.007C108.772 122.773 108.925 122.571 109.129 122.431L113.249 119.585V117.729L117.582 117.987L118.129 124.545Z" fill="#2F2E41"/>
<path d="M120.954 100.896L119.05 102.828L110.693 96.4022L113.504 93.5516L120.954 100.896Z" fill="#FFB6B6"/>
<path d="M125.306 103.176L123.941 104.562L122.389 103.52L123.072 105.442L119.45 109.116C119.277 109.292 119.051 109.408 118.807 109.447C118.563 109.486 118.313 109.446 118.093 109.332C117.873 109.219 117.695 109.038 117.585 108.817C117.476 108.595 117.439 108.344 117.482 108.101L118.348 103.17L117.026 101.866L120.253 98.9619L125.306 103.176Z" fill="#2F2E41"/>
<path d="M99.2568 44.2979L107.462 31.2447C107.807 30.6907 107.922 30.0228 107.78 29.3853C107.637 28.7478 107.25 28.1917 106.702 27.837C106.418 27.6535 106.1 27.5298 105.767 27.4733C105.434 27.4168 105.092 27.4287 104.764 27.5084C104.436 27.588 104.127 27.7337 103.857 27.9366C103.586 28.1394 103.36 28.3952 103.192 28.6883L95.0851 42.5085L89.805 50.6986C89.3658 50.6219 88.9135 50.6823 88.5097 50.8715C88.1059 51.0608 87.7702 51.3698 87.5482 51.7565C87.3261 52.1432 87.2285 52.5888 87.2686 53.0329C87.3086 53.477 87.4844 53.8981 87.7721 54.2388C88.0598 54.5795 88.4454 54.8234 88.8766 54.9373C89.3077 55.0512 89.7634 55.0297 90.1819 54.8756C90.6004 54.7215 90.9612 54.4424 91.2155 54.076C91.4698 53.7097 91.6051 53.274 91.6031 52.8281L99.2568 44.2979Z" fill="#FFB6B6"/>
<path d="M106.989 34.6585L107.681 34.528C107.587 34.3583 107.549 34.1641 107.569 33.9716C107.59 33.779 107.669 33.5974 107.796 33.4512C107.923 33.305 108.091 33.2011 108.279 33.1536C108.467 33.1061 108.664 33.1173 108.846 33.1856C108.012 32.3164 108.417 30.8853 108.953 29.8069C109.341 29.0275 109.776 28.2574 109.966 27.4079C110.254 26.1182 109.883 24.5573 108.163 24.2485C107.459 24.1385 106.74 24.2842 106.135 24.6591C105.054 25.2978 104.811 25.0197 104.129 26.0479L103.74 26.7702C103.241 27.5523 102.645 28.2683 101.967 28.9013C101.482 29.3844 101.091 29.9534 100.814 30.5795C100.778 30.657 100.724 30.725 100.657 30.7783C100.391 30.9839 100.029 30.9942 99.696 31.038C99.2758 31.0933 98.795 31.2712 98.8058 31.7924C98.8119 31.917 98.8437 32.039 98.8992 32.1507C98.9547 32.2625 99.0328 32.3615 99.1284 32.4416C100.903 33.9943 102.979 35.1633 105.227 35.8751C105.726 36.0329 106.287 36.1635 106.757 35.932C107.227 35.7005 107.428 34.9436 106.989 34.6585Z" fill="#E61D2B"/>
<path d="M117.399 59.4678L101.425 59.222L100.934 55.536L102.408 47.181H114.941L117.399 59.4678Z" fill="#FFB6B6"/>
<path d="M83.24 69.2971H21.0662C19.5677 69.2954 18.131 68.6994 17.0714 67.6399C16.0118 66.5803 15.4157 65.1437 15.4141 63.6452V28.0137C15.4158 26.5153 16.0118 25.0787 17.0714 24.0191C18.131 22.9595 19.5677 22.3635 21.0662 22.3618H83.24C84.7385 22.3635 86.1752 22.9595 87.2348 24.0191C88.2944 25.0787 88.8905 26.5153 88.8922 28.0137V63.6452C88.8905 65.1437 88.2944 66.5803 87.2348 67.6399C86.1752 68.6994 84.7385 69.2954 83.24 69.2971Z" fill="white"/>
<path d="M83.24 69.2971H21.0662C19.5677 69.2954 18.131 68.6994 17.0714 67.6399C16.0118 66.5803 15.4157 65.1437 15.4141 63.6452V28.0137C15.4158 26.5153 16.0118 25.0787 17.0714 24.0191C18.131 22.9595 19.5677 22.3635 21.0662 22.3618H83.24C84.7385 22.3635 86.1752 22.9595 87.2348 24.0191C88.2944 25.0787 88.8905 26.5153 88.8922 28.0137V63.6452C88.8905 65.1437 88.2944 66.5803 87.2348 67.6399C86.1752 68.6994 84.7385 69.2954 83.24 69.2971ZM21.0662 22.8533C19.698 22.8548 18.3863 23.399 17.4188 24.3664C16.4513 25.3339 15.9071 26.6456 15.9056 28.0137V63.6452C15.9071 65.0134 16.4513 66.3251 17.4188 67.2925C18.3863 68.2599 19.698 68.8041 21.0662 68.8057H83.24C84.6082 68.8041 85.9199 68.2599 86.8874 67.2925C87.8549 66.3251 88.3991 65.0134 88.4007 63.6452V28.0137C88.3991 26.6456 87.8549 25.3339 86.8875 24.3664C85.92 23.399 84.6082 22.8548 83.24 22.8533H21.0662Z" fill="#E6E6E6"/>
<path d="M88.4011 48.2473H15.6598C15.5946 48.2473 15.5321 48.2214 15.486 48.1754C15.4399 48.1293 15.4141 48.0668 15.4141 48.0016C15.4141 47.9364 15.4399 47.8739 15.486 47.8278C15.5321 47.7818 15.5946 47.7559 15.6598 47.7559H88.4011C88.4663 47.7559 88.5288 47.7818 88.5749 47.8278C88.621 47.8739 88.6469 47.9364 88.6469 48.0016C88.6469 48.0668 88.621 48.1293 88.5749 48.1754C88.5288 48.2214 88.4663 48.2473 88.4011 48.2473Z" fill="#E6E6E6"/>
<path d="M82.9949 11.5496C84.2164 11.5496 85.2066 10.5594 85.2066 9.33796C85.2066 8.11652 84.2164 7.12634 82.9949 7.12634C81.7734 7.12634 80.7832 8.11652 80.7832 9.33796C80.7832 10.5594 81.7734 11.5496 82.9949 11.5496Z" fill="#F2F2F2"/>
<path d="M2.21172 46.7633C3.43321 46.7633 4.42343 45.7731 4.42343 44.5517C4.42343 43.3303 3.43321 42.3401 2.21172 42.3401C0.990219 42.3401 0 43.3303 0 44.5517C0 45.7731 0.990219 46.7633 2.21172 46.7633Z" fill="#F2F2F2"/>
<path d="M47.6746 84.6065C48.8961 84.6065 49.8863 83.6163 49.8863 82.3948C49.8863 81.1734 48.8961 80.1832 47.6746 80.1832C46.4531 80.1832 45.4629 81.1734 45.4629 82.3948C45.4629 83.6163 46.4531 84.6065 47.6746 84.6065Z" fill="#F2F2F2"/>
<path d="M34.3174 59.0501H26.6393C26.5741 59.0501 26.5116 59.0242 26.4655 58.9781C26.4194 58.932 26.3936 58.8695 26.3936 58.8043C26.3936 58.7392 26.4194 58.6766 26.4655 58.6306C26.5116 58.5845 26.5741 58.5586 26.6393 58.5586H34.3174C34.3826 58.5586 34.4451 58.5845 34.4912 58.6306C34.5373 58.6766 34.5632 58.7392 34.5632 58.8043C34.5632 58.8695 34.5373 58.932 34.4912 58.9781C34.4451 59.0242 34.3826 59.0501 34.3174 59.0501Z" fill="#CCCCCC"/>
<path d="M34.3174 62.9818H26.6393C26.5741 62.9818 26.5116 62.9559 26.4655 62.9098C26.4194 62.8638 26.3936 62.8013 26.3936 62.7361C26.3936 62.6709 26.4194 62.6084 26.4655 62.5623C26.5116 62.5162 26.5741 62.4904 26.6393 62.4904H34.3174C34.3826 62.4904 34.4451 62.5162 34.4912 62.5623C34.5373 62.6084 34.5632 62.6709 34.5632 62.7361C34.5632 62.8013 34.5373 62.8638 34.4912 62.9098C34.4451 62.9559 34.3826 62.9818 34.3174 62.9818Z" fill="#CCCCCC"/>
<path d="M76.3399 59.0501H68.6618C68.5966 59.0501 68.5341 59.0242 68.488 58.9781C68.4419 58.932 68.416 58.8695 68.416 58.8043C68.416 58.7392 68.4419 58.6766 68.488 58.6306C68.5341 58.5845 68.5966 58.5586 68.6618 58.5586H76.3399C76.4051 58.5586 76.4676 58.5845 76.5137 58.6306C76.5598 58.6766 76.5856 58.7392 76.5856 58.8043C76.5856 58.8695 76.5598 58.932 76.5137 58.9781C76.4676 59.0242 76.4051 59.0501 76.3399 59.0501Z" fill="#CCCCCC"/>
<path d="M76.3399 62.9818H68.6618C68.5966 62.9818 68.5341 62.9559 68.488 62.9098C68.4419 62.8638 68.416 62.8013 68.416 62.7361C68.416 62.6709 68.4419 62.6084 68.488 62.5623C68.5341 62.5162 68.5966 62.4904 68.6618 62.4904H76.3399C76.4051 62.4904 76.4676 62.5162 76.5137 62.5623C76.5598 62.6084 76.5856 62.6709 76.5856 62.7361C76.5856 62.8013 76.5598 62.8638 76.5137 62.9098C76.4676 62.9559 76.4051 62.9818 76.3399 62.9818Z" fill="#CCCCCC"/>
<path d="M62.3321 59.0501H54.6539C54.5888 59.0501 54.5263 59.0242 54.4802 58.9781C54.4341 58.932 54.4082 58.8695 54.4082 58.8043C54.4082 58.7392 54.4341 58.6766 54.4802 58.6306C54.5263 58.5845 54.5888 58.5586 54.6539 58.5586H62.3321C62.3973 58.5586 62.4598 58.5845 62.5059 58.6306C62.552 58.6766 62.5778 58.7392 62.5778 58.8043C62.5778 58.8695 62.552 58.932 62.5059 58.9781C62.4598 59.0242 62.3973 59.0501 62.3321 59.0501Z" fill="#CCCCCC"/>
<path d="M62.3321 62.9818H54.6539C54.5888 62.9818 54.5263 62.9559 54.4802 62.9098C54.4341 62.8638 54.4082 62.8013 54.4082 62.7361C54.4082 62.6709 54.4341 62.6084 54.4802 62.5623C54.5263 62.5162 54.5888 62.4904 54.6539 62.4904H62.3321C62.3973 62.4904 62.4598 62.5162 62.5059 62.5623C62.552 62.6084 62.5778 62.6709 62.5778 62.7361C62.5778 62.8013 62.552 62.8638 62.5059 62.9098C62.4598 62.9559 62.3973 62.9818 62.3321 62.9818Z" fill="#CCCCCC"/>
<path d="M48.3252 59.0501H40.6471C40.5819 59.0501 40.5194 59.0242 40.4733 58.9781C40.4273 58.932 40.4014 58.8695 40.4014 58.8043C40.4014 58.7392 40.4273 58.6766 40.4733 58.6306C40.5194 58.5845 40.5819 58.5586 40.6471 58.5586H48.3252C48.3904 58.5586 48.4529 58.5845 48.499 58.6306C48.5451 58.6766 48.571 58.7392 48.571 58.8043C48.571 58.8695 48.5451 58.932 48.499 58.9781C48.4529 59.0242 48.3904 59.0501 48.3252 59.0501Z" fill="#CCCCCC"/>
<path d="M48.3252 62.9818H40.6471C40.5819 62.9818 40.5194 62.9559 40.4733 62.9098C40.4273 62.8638 40.4014 62.8013 40.4014 62.7361C40.4014 62.6709 40.4273 62.6084 40.4733 62.5623C40.5194 62.5162 40.5819 62.4904 40.6471 62.4904H48.3252C48.3904 62.4904 48.4529 62.5162 48.499 62.5623C48.5451 62.6084 48.571 62.6709 48.571 62.7361C48.571 62.8013 48.5451 62.8638 48.499 62.9098C48.4529 62.9559 48.3904 62.9818 48.3252 62.9818Z" fill="#CCCCCC"/>
<path d="M100.934 55.2903L100.442 61.9251L91.1698 78.5348C90.7244 79.2743 90.5291 80.1376 90.6126 80.9969C90.6962 81.8561 91.0542 82.6656 91.6336 83.3055L106.175 96.481C106.175 96.481 109.034 96.5747 108.793 97.9258C108.552 99.2768 110.08 99.2128 110.08 99.2128L111.799 100.455L112.73 93.3792C109.603 86.3988 104.967 84.2694 100.934 81.0494C100.934 81.0494 102.635 80.5438 102.276 79.9581C101.917 79.3723 103.044 79.3334 103.044 79.3334C103.044 79.3334 103.792 79.2325 103.837 78.6881C103.883 78.1436 104.608 78.0613 104.608 78.0613L108.676 73.9661L119.365 73.4747C119.365 73.4747 123.888 62.1438 116.416 54.7988L100.934 55.2903Z" fill="#2F2E41"/>
<path d="M108.7 70.889L112.238 113.038L117.449 112.722L119.365 73.4747L108.7 70.889Z" fill="#2F2E41"/>
<path d="M108.954 20.6161L114.919 20.3088L117.69 24.6866C117.69 24.6866 122.903 25.5581 122.542 31.7007C122.18 37.8433 116.199 43.2334 116.199 43.2334L116.455 46.4322L116.011 47.701L116.067 48.4134L116.673 49.1679L116.736 49.9482L116.199 51.1827L116.416 52.833C116.416 52.833 111.019 53.9043 108.188 51.7714C105.357 49.6384 101.18 50.8671 101.18 50.8671L101.022 48.834L101.841 47.7364L101.384 46.3047L102.071 44.9277L102.43 40.5536C102.43 40.5536 98.5081 34.6626 103.01 30.2256L104.816 27.1543L106.838 24.688L108.954 20.6161Z" fill="#E61D2B"/>
<path d="M123.582 47.2559L123.143 31.8449C123.122 31.192 122.846 30.5734 122.373 30.1225C121.9 29.6716 121.269 29.4247 120.616 29.4349C120.278 29.4402 119.945 29.5142 119.637 29.6525C119.328 29.7908 119.052 29.9904 118.823 30.2392C118.594 30.488 118.419 30.7807 118.307 31.0996C118.195 31.4185 118.149 31.7568 118.172 32.0939L119.119 48.0883L119.285 57.8313C118.877 58.0118 118.535 58.3134 118.304 58.6952C118.074 59.077 117.967 59.5205 117.997 59.9654C118.028 60.4102 118.194 60.8349 118.475 61.1818C118.755 61.5286 119.135 61.7808 119.564 61.904C119.992 62.0273 120.448 62.0156 120.87 61.8706C121.292 61.7255 121.659 61.4542 121.921 61.0935C122.183 60.7327 122.328 60.3001 122.335 59.8542C122.343 59.4084 122.213 58.971 121.963 58.6015L123.582 47.2559Z" fill="#FFB6B6"/>
<path d="M124.648 34.9448C124.761 34.8303 124.833 34.682 124.853 34.5226C124.873 34.3631 124.841 34.2015 124.76 34.0624C124.664 33.8889 124.625 33.6898 124.647 33.4928C124.652 33.4547 124.659 33.4171 124.669 33.38C124.733 33.1579 124.743 32.9237 124.697 32.6972C124.651 32.4706 124.551 32.2585 124.406 32.0788C123.919 31.4942 123.684 30.6092 123.583 29.8203C123.471 28.957 123.405 28.0747 123.09 27.2632C122.636 26.0925 121.552 25.0492 120.071 25.5485C119.444 25.7707 118.913 26.202 118.568 26.7698C117.829 27.9472 117.821 29.3709 117.827 30.733L117.561 30.1948C117.593 31.6824 117.324 33.1611 116.771 34.5422C117.101 34.4782 117.334 34.9216 117.227 35.2404C117.121 35.5592 116.826 35.7688 116.573 35.9906C116.255 36.2701 115.954 36.6853 116.253 37.1125C116.327 37.2127 116.421 37.2964 116.53 37.3584C116.638 37.4204 116.758 37.4593 116.882 37.4728C119.22 37.7767 121.596 37.5939 123.86 36.9357C124.363 36.7892 124.902 36.5858 125.163 36.1323C125.425 35.6787 125.172 34.9375 124.648 34.9448Z" fill="#E61D2B"/>
<path d="M112.238 19.413C115.36 19.413 117.89 16.8826 117.89 13.7612C117.89 10.6397 115.36 8.10925 112.238 8.10925C109.116 8.10925 106.586 10.6397 106.586 13.7612C106.586 16.8826 109.116 19.413 112.238 19.413Z" fill="#FFB6B6"/>
<path d="M53.6502 13.1807C57.2901 13.1807 60.2409 10.2301 60.2409 6.59033C60.2409 2.95059 57.2901 0 53.6502 0C50.0103 0 47.0596 2.95059 47.0596 6.59033C47.0596 10.2301 50.0103 13.1807 53.6502 13.1807Z" fill="#E61D2B"/>
<path d="M53.418 9.23399C53.3295 9.23399 53.2423 9.21339 53.1632 9.17382C53.084 9.13426 53.0152 9.07681 52.9622 9.00604L51.5648 7.14288C51.5197 7.08304 51.4869 7.0149 51.4682 6.94236C51.4495 6.86982 51.4453 6.79431 51.4559 6.72015C51.4664 6.64598 51.4914 6.57462 51.5296 6.51015C51.5677 6.44568 51.6182 6.38936 51.6781 6.34442C51.738 6.29947 51.8063 6.26679 51.8788 6.24823C51.9514 6.22968 52.0269 6.22562 52.1011 6.23628C52.1752 6.24695 52.2465 6.27213 52.3109 6.31039C52.3753 6.34864 52.4316 6.39922 52.4764 6.45924L53.3906 7.67806L55.7388 4.15613C55.8227 4.03072 55.953 3.94374 56.101 3.91428C56.2491 3.88482 56.4027 3.9153 56.5283 3.99901C56.6539 4.08273 56.7411 4.21285 56.7708 4.36081C56.8006 4.50877 56.7704 4.66249 56.6869 4.78822L53.8921 8.98026C53.8415 9.05608 53.7735 9.11866 53.6938 9.16278C53.6141 9.20689 53.5249 9.23125 53.4338 9.2338L53.418 9.23399Z" fill="white"/>
<path d="M66.2705 25.415H38.0358C37.348 25.415 36.6883 25.1418 36.202 24.6554C35.7156 24.1691 35.4424 23.5095 35.4424 22.8217C35.4424 22.1339 35.7156 21.4743 36.202 20.988C36.6883 20.5016 37.348 20.2284 38.0358 20.2284H66.2705C66.6112 20.2281 66.9487 20.2949 67.2637 20.4251C67.5786 20.5552 67.8648 20.7462 68.1059 20.9871C68.347 21.2279 68.5383 21.5139 68.6687 21.8287C68.7992 22.1435 68.8664 22.4809 68.8664 22.8217C68.8664 23.1625 68.7992 23.4999 68.6687 23.8147C68.5383 24.1295 68.347 24.4155 68.1059 24.6563C67.8648 24.8972 67.5786 25.0881 67.2637 25.2183C66.9487 25.3485 66.6112 25.4153 66.2705 25.415Z" fill="#E61D2B"/>
<path d="M151.709 124.925L88.9559 125C88.8786 125 88.8047 124.969 88.7501 124.914C88.6956 124.859 88.665 124.785 88.665 124.707C88.665 124.63 88.6956 124.556 88.7501 124.501C88.8047 124.446 88.8786 124.415 88.9559 124.415L151.709 124.339C151.786 124.34 151.86 124.371 151.915 124.426C151.97 124.48 152 124.555 152 124.632C152 124.709 151.97 124.783 151.915 124.838C151.86 124.893 151.786 124.924 151.709 124.925Z" fill="#CACACA"/>
<path d="M119.365 12.2867V13.5154H114.475C114.525 13.2782 114.525 13.0333 114.475 12.7961C114.426 12.5589 114.328 12.3344 114.187 12.1368C114.183 12.6177 114.064 13.0906 113.838 13.5154C111.011 14.3516 108.637 14.3355 106.692 13.5154C106.404 13.5154 106.127 13.4007 105.922 13.1965C105.718 12.9923 105.604 12.7154 105.604 12.4266C105.604 8.65953 108.573 5.4853 112.34 5.40767C113.255 5.38828 114.165 5.55189 115.017 5.8889C115.869 6.2259 116.644 6.72952 117.299 7.37024C117.953 8.01095 118.473 8.77585 118.828 9.6201C119.183 10.4644 119.365 11.371 119.365 12.2867V12.2867Z" fill="#2F2E41"/>
<path d="M54.4876 33.4199H44.6578C44.3971 33.4199 44.1471 33.3163 43.9627 33.132C43.7784 32.9476 43.6748 32.6976 43.6748 32.4369C43.6748 32.1762 43.7784 31.9262 43.9627 31.7419C44.1471 31.5575 44.3971 31.454 44.6578 31.454H54.4876C54.7483 31.454 54.9984 31.5575 55.1827 31.7419C55.3671 31.9262 55.4706 32.1762 55.4706 32.4369C55.4706 32.6976 55.3671 32.9476 55.1827 33.132C54.9984 33.3163 54.7483 33.4199 54.4876 33.4199Z" fill="#CCCCCC"/>
<path d="M56.9456 54.381H47.1158C46.8551 54.381 46.6051 54.2775 46.4207 54.0931C46.2364 53.9088 46.1328 53.6588 46.1328 53.3981C46.1328 53.1374 46.2364 52.8874 46.4207 52.7031C46.6051 52.5187 46.8551 52.4152 47.1158 52.4152H56.9456C57.2063 52.4152 57.4564 52.5187 57.6407 52.7031C57.8251 52.8874 57.9286 53.1374 57.9286 53.3981C57.9286 53.6588 57.8251 53.9088 57.6407 54.0931C57.4564 54.2775 57.2063 54.381 56.9456 54.381Z" fill="#CCCCCC"/>
<path d="M75.6224 38.8261H44.4127C44.152 38.8261 43.9019 38.7225 43.7176 38.5382C43.5333 38.3539 43.4297 38.1039 43.4297 37.8432C43.4297 37.5825 43.5333 37.3325 43.7176 37.1481C43.9019 36.9638 44.152 36.8602 44.4127 36.8602H75.6224C75.8832 36.8602 76.1332 36.9638 76.3175 37.1481C76.5019 37.3325 76.6054 37.5825 76.6054 37.8432C76.6054 38.1039 76.5019 38.3539 76.3175 38.5382C76.1332 38.7225 75.8832 38.8261 75.6224 38.8261Z" fill="#CCCCCC"/>
<path d="M32.9842 41.7303C36.6241 41.7303 39.5748 38.7798 39.5748 35.14C39.5748 31.5003 36.6241 28.5497 32.9842 28.5497C29.3443 28.5497 26.3936 31.5003 26.3936 35.14C26.3936 38.7798 29.3443 41.7303 32.9842 41.7303Z" fill="#E6E6E6"/>
</g>
<defs>
<clipPath id="clip0_1_2950">
<rect width="152" height="125" fill="white"/>
</clipPath>
</defs>
</svg>
